<?xml version="1.0" encoding="UTF-8"?>
<svg version="1.1" xmlns="http://www.w3.org/2000/svg" width="500" height="500">
<path d="M0 0 C1.26287842 0.00491455 2.52575684 0.0098291 3.8269043 0.01489258 C20.87855222 0.22495457 37.13206651 2.28276953 53.125 8.3125 C53.81932129 8.57047363 54.51364258 8.82844727 55.22900391 9.09423828 C70.28903813 14.76849244 83.54275999 22.17636256 96.125 32.3125 C96.69782715 32.77172852 97.2706543 33.23095703 97.86083984 33.70410156 C105.9374865 40.22914169 112.90830364 46.93138325 119.125 55.3125 C120.17107422 56.70662109 120.17107422 56.70662109 121.23828125 58.12890625 C123.23667284 60.83482632 125.20191475 63.5524821 127.125 66.3125 C127.59180176 66.97628662 128.05860352 67.64007324 128.53955078 68.32397461 C132.13433798 73.55001456 135.0540252 78.83053944 137.625 84.625 C138.1974646 85.9099939 138.1974646 85.9099939 138.78149414 87.22094727 C141.41106518 93.2909337 143.63953725 99.42167114 145.5625 105.75 C145.91441406 106.90012573 145.91441406 106.90012573 146.2734375 108.07348633 C149.66494478 119.87728626 150.47528274 131.59103805 150.44067383 143.79516602 C150.43751775 146.11197231 150.46105915 148.42749119 150.48632812 150.74414062 C150.54551126 164.48511402 148.30555955 177.3075399 144.4375 190.5 C144.1796875 191.38107422 143.921875 192.26214844 143.65625 193.16992188 C137.55619324 213.50826279 128.62311986 232.38808514 119.125 251.3125 C118.48062988 252.59713135 118.48062988 252.59713135 117.82324219 253.90771484 C107.37863288 274.55165015 94.96461554 294.09407164 82.125 313.3125 C81.49803223 314.25158203 80.87106445 315.19066406 80.22509766 316.15820312 C72.04270588 328.37375215 63.58310648 340.3475992 54.76855469 352.11474609 C53.18409177 354.23348276 51.6101881 356.35964319 50.0390625 358.48828125 C44.50918003 365.95641727 38.81362607 373.25697283 32.91870117 380.44067383 C29.33646143 384.80617548 25.83583701 389.22537229 22.375 393.6875 C18.45323545 398.73209929 14.35019537 403.54050646 10 408.2265625 C8.08241837 410.26918671 8.08241837 410.26918671 6.5625 412.5859375 C6.088125 413.15570313 5.61375 413.72546875 5.125 414.3125 C4.135 414.3125 3.145 414.3125 2.125 414.3125 C-2.875 408.96366279 -2.875 408.96366279 -2.875 406.3125 C-3.535 406.3125 -4.195 406.3125 -4.875 406.3125 C-6.50390625 404.51171875 -6.50390625 404.51171875 -8.4375 402 C-12.25046248 397.09562073 -16.18946319 392.31692215 -20.1875 387.5625 C-21.875 385.3125 -21.875 385.3125 -21.875 383.3125 C-22.535 383.3125 -23.195 383.3125 -23.875 383.3125 C-25.03125 382.01953125 -25.03125 382.01953125 -26.375 380.125 C-29.08408761 376.38764556 -31.86225343 372.71245414 -34.6875 369.0625 C-35.98076231 367.38219578 -37.27253637 365.70075691 -38.56396484 364.01904297 C-39.44355015 362.8741079 -40.32409652 361.72991057 -41.20556641 360.58642578 C-42.47533434 358.93634088 -43.73846416 357.28138313 -45 355.625 C-45.74507813 354.65175781 -46.49015625 353.67851562 -47.2578125 352.67578125 C-48.875 350.3125 -48.875 350.3125 -48.875 348.3125 C-49.535 348.3125 -50.195 348.3125 -50.875 348.3125 C-52.21484375 346.43359375 -52.21484375 346.43359375 -53.8125 343.75 C-57.28695 338.0985212 -61.12132631 332.80379967 -65.14233398 327.52905273 C-67.64264582 324.19988375 -69.39170924 321.23417605 -70.875 317.3125 C-71.535 316.9825 -72.195 316.6525 -72.875 316.3125 C-70.34905029 313.45895272 -67.50108615 311.84559536 -64.1875 310 C-59.63919614 307.40884508 -55.46761785 304.66687265 -51.3984375 301.37890625 C-49.875 300.3125 -49.875 300.3125 -47.875 300.3125 C-47.545 299.3225 -47.215 298.3325 -46.875 297.3125 C-45.34375 295.8046875 -45.34375 295.8046875 -43.375 294.1875 C-28.9831328 281.83703241 -18.73943337 266.98378791 -9.875 250.3125 C-9.27042969 249.18457031 -8.66585937 248.05664062 -8.04296875 246.89453125 C-4.17569696 239.43802682 -1.06431058 231.90135373 1.765625 224.00390625 C3.10273115 220.37297144 4.57115516 216.85435222 6.125 213.3125 C9.07456528 214.68194102 11.64968811 216.19080409 14.125 218.3125 C14.125 218.9725 14.125 219.6325 14.125 220.3125 C14.929375 220.68375 14.929375 220.68375 15.75 221.0625 C18.68924252 222.60946975 21.38254408 224.44264369 24.125 226.3125 C25.86206274 220.89905104 23.19176606 216.48718333 20.80859375 211.62890625 C20.35613281 210.69949219 19.90367187 209.77007812 19.4375 208.8125 C19.00050781 207.9565625 18.56351563 207.100625 18.11328125 206.21875 C16.82886467 202.44165143 16.3102785 199.20979703 17.125 195.3125 C18.77712616 191.96493489 20.9023992 189.05305777 23.125 186.0625 C24.32088183 184.38972979 25.51619485 182.71655279 26.7109375 181.04296875 C27.29584961 180.23649902 27.88076172 179.4300293 28.48339844 178.59912109 C30.65473679 175.57461857 32.7060063 172.48692299 34.75 169.375 C35.86598714 167.68152607 36.9896962 165.99308518 38.125 164.3125 C38.58648437 163.54808594 39.04796875 162.78367188 39.5234375 161.99609375 C41.125 160.3125 41.125 160.3125 43.5234375 159.8203125 C46.92982078 160.46476339 48.26556155 161.78615313 50.75 164.1875 C52.03777344 165.40566406 52.03777344 165.40566406 53.3515625 166.6484375 C54.26679688 167.52757812 55.18203125 168.40671875 56.125 169.3125 C58.11352613 171.15852589 60.11862511 172.98591974 62.125 174.8125 C63.0325 175.6478125 63.94 176.483125 64.875 177.34375 C66.95978636 179.33506897 66.95978636 179.33506897 69.125 180.3125 C69.125 180.9725 69.125 181.6325 69.125 182.3125 C70.115 182.6425 71.105 182.9725 72.125 183.3125 C72.125 183.9725 72.125 184.6325 72.125 185.3125 C72.67027344 185.54839844 73.21554687 185.78429687 73.77734375 186.02734375 C77.79392739 188.22610584 81.08566323 191.36462282 84.56640625 194.31640625 C87.02744819 196.46565692 87.02744819 196.46565692 90.125 197.3125 C88.49203947 188.03040859 84.89526661 181.29830042 79.6171875 173.578125 C78.22911327 171.47057774 77.00583312 169.34706857 75.8125 167.125 C73.61132267 163.05745224 71.1455072 159.18679423 68.625 155.3125 C67.84566535 154.10070313 67.06700567 152.88847188 66.2890625 151.67578125 C65.00751599 149.68406366 63.71493543 147.69925864 62.3984375 145.73046875 C59.5737841 141.22522548 58.37828981 137.88016735 59.34765625 132.5625 C60.8156182 128.31352471 63.50775738 124.9214077 66.125 121.3125 C72.55123406 111.64758034 72.73802924 103.84061403 70.59765625 92.5859375 C70.36369141 91.46058594 70.36369141 91.46058594 70.125 90.3125 C65.74291749 89.00754161 63.28776622 89.66407664 59.125 91.4375 C58.114375 91.85257812 57.10375 92.26765625 56.0625 92.6953125 C49.82995995 96.12652471 46.81252166 101.11852412 43.5625 107.1875 C42.44190669 109.23514719 41.32082845 111.28247087 40.19482422 113.32714844 C39.49322781 114.62915254 38.81661996 115.94500178 38.16845703 117.27441406 C35.86762454 121.7953064 33.95093234 123.73371471 29.125 125.3125 C25.83310599 125.75305624 22.5683054 125.86847136 19.25 125.9375 C17.52334767 125.98927368 15.79677908 126.04392629 14.0703125 126.1015625 C12.82217773 126.14265137 12.82217773 126.14265137 11.54882812 126.18457031 C8.04327759 126.36959333 4.60435436 126.85210821 1.125 127.3125 C-0.79558881 127.3125 -2.71626027 127.31143677 -4.63671875 127.2890625 C-14.42935785 127.39160322 -24.19545115 128.95048698 -33.875 130.3125 C-33.875 131.6325 -33.875 132.9525 -33.875 134.3125 C-33.26333984 134.43004639 -32.65167969 134.54759277 -32.02148438 134.66870117 C-26.0939658 135.82801405 -20.2298674 137.14372622 -14.375 138.625 C-13.52349365 138.8401123 -12.6719873 139.05522461 -11.79467773 139.27685547 C-9.15309572 139.94902741 -6.51360597 140.62874327 -3.875 141.3125 C-3.0205127 141.53373535 -2.16602539 141.7549707 -1.28564453 141.98291016 C1.16672275 142.62378917 3.61513671 143.2777958 6.0625 143.9375 C6.80113281 144.13126221 7.53976563 144.32502441 8.30078125 144.5246582 C16.20355992 146.69406643 16.20355992 146.69406643 19.125 149.3125 C19.57230948 154.61076095 18.56493327 159.06319483 16.89453125 164.0390625 C16.66223312 164.74976898 16.429935 165.46047546 16.19059753 166.19271851 C15.69902301 167.68525059 15.20205256 169.17601532 14.69995117 170.66503906 C13.93921575 172.93238626 13.2061568 175.20746741 12.47460938 177.484375 C11.99123571 178.94065367 11.50626269 180.39640266 11.01953125 181.8515625 C10.8047261 182.52563141 10.58992096 183.19970032 10.36860657 183.89419556 C8.79920106 188.44651755 6.82411502 191.24342871 3.125 194.3125 C0.45986792 195.25096672 -1.89103442 195.93745564 -4.625 196.5 C-5.68473022 196.74242432 -5.68473022 196.74242432 -6.76586914 196.98974609 C-9.79821241 197.67766615 -12.8414534 198.30558183 -15.88671875 198.93359375 C-17.89223499 199.35019857 -19.88579233 199.82392268 -21.875 200.3125 C-22.205 200.9725 -22.535 201.6325 -22.875 202.3125 C-19.60243216 204.19599228 -16.66030985 204.78670592 -12.9375 205.3125 C-8.95133915 205.87691216 -5.56328161 206.68232028 -1.875 208.3125 C-14.77386835 228.51374393 -35.81782477 243.98976065 -58.875 250.3125 C-60.07125 250.663125 -61.2675 251.01375 -62.5 251.375 C-63.61375 251.684375 -64.7275 251.99375 -65.875 252.3125 C-66.49890625 252.4878125 -67.1228125 252.663125 -67.765625 252.84375 C-76.4484269 255.16827964 -85.10889187 255.49390496 -94.0625 255.5 C-95.02091797 255.51224609 -95.97933594 255.52449219 -96.96679688 255.53710938 C-106.70059107 255.55729001 -106.70059107 255.55729001 -110.875 253.3125 C-112.7109375 250.6875 -112.7109375 250.6875 -114.25 247.3125 C-114.53399658 246.7030957 -114.81799316 246.09369141 -115.1105957 245.46582031 C-116.05405352 243.4240048 -116.96475169 241.36931558 -117.875 239.3125 C-118.56799537 237.78599712 -119.26203232 236.25996673 -119.95703125 234.734375 C-123.15601602 227.66437469 -126.26798043 220.566921 -129.078125 213.33203125 C-129.81253719 211.47080035 -130.62183745 209.63958411 -131.4375 207.8125 C-133.2521912 203.39412142 -134.55231277 198.89735885 -135.875 194.3125 C-136.39459291 192.60378898 -136.91540803 190.8954491 -137.4375 189.1875 C-139.42849328 182.50568487 -141.0342843 176.16088396 -141.62890625 169.1953125 C-141.78176996 167.22602564 -141.78176996 167.22602564 -142.875 165.3125 C-142.99856638 162.71629537 -143.06344534 160.14812423 -143.078125 157.55078125 C-143.08382507 156.76793259 -143.08952515 155.98508392 -143.09539795 155.17851257 C-143.10486275 153.51151888 -143.11138778 151.84450636 -143.11523438 150.17749023 C-143.12479027 147.67981702 -143.15573246 145.18302143 -143.1875 142.68554688 C-143.40745351 109.48332614 -130.01272962 79.48057161 -110 53.5625 C-109.52328857 52.94101074 -109.04657715 52.31952148 -108.55541992 51.67919922 C-107.3772381 50.18400168 -106.13152792 48.742488 -104.875 47.3125 C-104.215 47.3125 -103.555 47.3125 -102.875 47.3125 C-102.61203125 46.7246875 -102.3490625 46.136875 -102.078125 45.53125 C-98.92120891 39.70940475 -93.3500201 35.7966037 -87.875 32.3125 C-87.25625 31.66087891 -87.25625 31.66087891 -86.625 30.99609375 C-73.24373371 18.12259873 -54.33207702 10.50856776 -36.875 5.3125 C-35.83085937 4.99410156 -34.78671875 4.67570313 -33.7109375 4.34765625 C-22.54991664 1.11514156 -11.59949236 -0.053893 0 0 Z " fill="#2482E3" transform="translate(238.875,10.6875)"/>
<path d="M0 0 C2.64 0 5.28 0 8 0 C4.985863 6.13932115 1.21710822 11.49667797 -2.99804688 16.8527832 C-6.08288192 20.77939882 -9.00978035 24.78602088 -11.875 28.875 C-16.80082854 35.86364093 -22.12132872 42.49772103 -27.50195312 49.13867188 C-29.92730345 52.15217755 -32.3059917 55.20182014 -34.6875 58.25 C-39.37706978 64.23507693 -44.14974804 70.14401018 -49 76 C-49.96630834 77.18997222 -50.9324454 78.38008355 -51.8984375 79.5703125 C-52.89011812 80.7764586 -53.88229857 81.98219392 -54.875 83.1875 C-55.33970703 83.76508057 -55.80441406 84.34266113 -56.28320312 84.93774414 C-57.45624122 86.34929712 -58.7222651 87.6824668 -60 89 C-60.99 89 -61.98 89 -63 89 C-68 83.65116279 -68 83.65116279 -68 81 C-68.66 81 -69.32 81 -70 81 C-71.62890625 79.19921875 -71.62890625 79.19921875 -73.5625 76.6875 C-77.37546248 71.78312073 -81.31446319 67.00442215 -85.3125 62.25 C-87 60 -87 60 -87 58 C-87.66 58 -88.32 58 -89 58 C-90.15625 56.70703125 -90.15625 56.70703125 -91.5 54.8125 C-93.77927913 51.66466062 -96.10090695 48.5621739 -98.48876953 45.49560547 C-104.20757415 38.14728471 -109.63713196 30.61070848 -115 23 C-112 23 -112 23 -110.4375 24.1875 C-109 26 -109 26 -108.375 28.5625 C-107.25902406 31.16746414 -107.25902406 31.16746414 -104.91015625 31.73046875 C-103.27987359 32.07300839 -101.64105099 32.37743184 -99.99609375 32.640625 C-98 33 -98 33 -97 34 C-96.34 33.01 -95.68 32.02 -95 31 C-94.67 32.65 -94.34 34.3 -94 36 C-93.34 36 -92.68 36 -92 36 C-91.34 36.99 -90.68 37.98 -90 39 C-88.04638398 32.99625739 -88.04638398 32.99625739 -89 27 C-87.96875 26.814375 -86.9375 26.62875 -85.875 26.4375 C-81.79718895 25.28525279 -80.15134294 23.13132468 -77.59375 19.88671875 C-74.52994762 16.2597174 -70.74301936 12.49260272 -65.93359375 11.62890625 C-64 11.625 -64 11.625 -61 12 C-61 15.48961209 -61.90379374 17.11480295 -63.5 20.1875 C-63.9640625 21.08855469 -64.428125 21.98960937 -64.90625 22.91796875 C-65.2671875 23.60503906 -65.628125 24.29210937 -66 25 C-65.34 25 -64.68 25 -64 25 C-63.34 23.68 -62.68 22.36 -62 21 C-61.34 21 -60.68 21 -60 21 C-59.67 20.34 -59.34 19.68 -59 19 C-58.8453125 19.8971875 -58.8453125 19.8971875 -58.6875 20.8125 C-58.1720991 23.06591338 -58.1720991 23.06591338 -56.5 24.4375 C-54.51631964 26.50383371 -54.41881473 28.20790181 -54 31 C-53.505 32.485 -53.505 32.485 -53 34 C-52.34 32.68 -51.68 31.36 -51 30 C-51.99 29.67 -52.98 29.34 -54 29 C-54 28.34 -54 27.68 -54 27 C-53.24332031 26.96003906 -52.48664063 26.92007812 -51.70703125 26.87890625 C-48.74422292 26.22763971 -48.74422292 26.22763971 -47.19921875 23.27734375 C-46.45091797 21.62412109 -46.45091797 21.62412109 -45.6875 19.9375 C-45.17574219 18.83277344 -44.66398437 17.72804688 -44.13671875 16.58984375 C-43.76160156 15.73519531 -43.38648438 14.88054687 -43 14 C-47.55109057 16.13254654 -50.05476052 17.89770216 -53 22 C-53.66 22.66 -54.32 23.32 -55 24 C-56 23 -56 23 -56.4375 20.25 C-56 17 -56 17 -53.5 14.125 C-49.68240366 11.2981608 -46.62467809 11.46045422 -42 12 C-41.01 12.99 -41.01 12.99 -40 14 C-40.30309404 18.09176955 -40.87699058 21.46165096 -43 25 C-41.02 25 -39.04 25 -37 25 C-36.59007812 24.22914063 -36.18015625 23.45828125 -35.7578125 22.6640625 C-35.21898437 21.66117187 -34.68015625 20.65828125 -34.125 19.625 C-33.59132813 18.62726563 -33.05765625 17.62953125 -32.5078125 16.6015625 C-31 14 -31 14 -29 12 C-26.375 12.375 -26.375 12.375 -24 13 C-24.4586421 15.14032981 -24.952188 16.91184663 -26 18.84375 C-27.10494201 21.22628121 -27.39497346 23.14303252 -27.625 25.75 C-27.69976562 26.54921875 -27.77453125 27.3484375 -27.8515625 28.171875 C-27.90054688 28.77515625 -27.94953125 29.3784375 -28 30 C-29.485 30.495 -29.485 30.495 -31 31 C-31 33.31 -31 35.62 -31 38 C-28.19430196 33.19023193 -26.97350012 28.32780577 -25.6953125 22.92578125 C-24.90034189 19.58065213 -23.97398652 16.29656975 -23 13 C-22.67 13 -22.34 13 -22 13 C-20.40816327 25.6122449 -20.40816327 25.6122449 -24 31 C-21.64632287 31.6878236 -21.64632287 31.6878236 -19 32 C-15.87525373 30.36526484 -15.87525373 30.36526484 -15.3125 27.875 C-15.209375 27.25625 -15.10625 26.6375 -15 26 C-14.34 26 -13.68 26 -13 26 C-13 25.34 -13 24.68 -13 24 C-12.195625 23.2575 -11.39125 22.515 -10.5625 21.75 C-7.68338114 18.6602139 -7.1805781 17.15329637 -7 13 C-7.495 11.515 -7.495 11.515 -8 10 C-7.34 10 -6.68 10 -6 10 C-5.67 9.34 -5.34 8.68 -5 8 C-4.154375 7.38125 -3.30875 6.7625 -2.4375 6.125 C-1.633125 5.42375 -0.82875 4.7225 0 4 C0 2.68 0 1.36 0 0 Z M-25 32 C-25.66 33.32 -26.32 34.64 -27 36 C-26.01 36 -25.02 36 -24 36 C-24.33 34.68 -24.66 33.36 -25 32 Z M-96 29 C-95.34 29 -94.68 29 -94 29 C-94.33 29.66 -94.66 30.32 -95 31 C-95.33 30.34 -95.66 29.68 -96 29 Z " fill="#27A3E3" transform="translate(304,336)"/>
<path d="M0 0 C0 3.48961209 -0.90379374 5.11480295 -2.5 8.1875 C-3.19609375 9.53908203 -3.19609375 9.53908203 -3.90625 10.91796875 C-4.2671875 11.60503906 -4.628125 12.29210937 -5 13 C-4.34 13 -3.68 13 -3 13 C-2.34 11.68 -1.68 10.36 -1 9 C-0.34 9 0.32 9 1 9 C1.33 8.34 1.66 7.68 2 7 C2.103125 7.598125 2.20625 8.19625 2.3125 8.8125 C2.8279009 11.06591338 2.8279009 11.06591338 4.5 12.4375 C6.48368036 14.50383371 6.58118527 16.20790181 7 19 C7.495 20.485 7.495 20.485 8 22 C8.66 20.68 9.32 19.36 10 18 C9.01 17.67 8.02 17.34 7 17 C7 16.34 7 15.68 7 15 C8.13501953 14.94005859 8.13501953 14.94005859 9.29296875 14.87890625 C12.25577708 14.22763971 12.25577708 14.22763971 13.80078125 11.27734375 C14.29964844 10.17519531 14.79851562 9.07304687 15.3125 7.9375 C16.08013672 6.28041016 16.08013672 6.28041016 16.86328125 4.58984375 C17.23839844 3.73519531 17.61351562 2.88054687 18 2 C13.44890943 4.13254654 10.94523948 5.89770216 8 10 C7.34 10.66 6.68 11.32 6 12 C5 11 5 11 4.5625 8.25 C5 5 5 5 7.5 2.125 C11.31759634 -0.7018392 14.37532191 -0.53954578 19 0 C19.66 0.66 20.32 1.32 21 2 C20.69690596 6.09176955 20.12300942 9.46165096 18 13 C19.98 13 21.96 13 24 13 C24.40992188 12.22914063 24.81984375 11.45828125 25.2421875 10.6640625 C25.78101563 9.66117187 26.31984375 8.65828125 26.875 7.625 C27.40867187 6.62726563 27.94234375 5.62953125 28.4921875 4.6015625 C30 2 30 2 32 0 C34.625 0.375 34.625 0.375 37 1 C36.5413579 3.14032981 36.047812 4.91184663 35 6.84375 C33.89505799 9.22628121 33.60502654 11.14303252 33.375 13.75 C33.30023438 14.54921875 33.22546875 15.3484375 33.1484375 16.171875 C33.09945312 16.77515625 33.05046875 17.3784375 33 18 C32.01 18.33 31.02 18.66 30 19 C29.34 22.3 28.68 25.6 28 29 C24.56229171 29.05385444 21.12542358 29.09360344 17.6875 29.125 C16.71103516 29.14175781 15.73457031 29.15851563 14.72851562 29.17578125 C13.32182617 29.18544922 13.32182617 29.18544922 11.88671875 29.1953125 C11.02264404 29.20578613 10.15856934 29.21625977 9.26831055 29.22705078 C7 29 7 29 4 27 C3.3125 23.375 3.3125 23.375 3 20 C2.01 20.33 1.02 20.66 0 21 C-0.69258229 22.99117408 -1.35747635 24.9921136 -2 27 C-3.63871604 29.14332067 -4.4685074 29.91045505 -7.15625 30.36328125 C-7.9296875 30.34652344 -8.703125 30.32976562 -9.5 30.3125 C-10.2734375 30.30863281 -11.046875 30.30476563 -11.84375 30.30078125 C-14 30 -14 30 -17 28 C-19.54207971 27.66656449 -19.54207971 27.66656449 -22 28 C-22.66 28.66 -23.32 29.32 -24 30 C-26.625 29.625 -26.625 29.625 -29 29 C-28.855625 28.37351562 -28.71125 27.74703125 -28.5625 27.1015625 C-28.376875 26.28429687 -28.19125 25.46703125 -28 24.625 C-27.814375 23.81289063 -27.62875 23.00078125 -27.4375 22.1640625 C-26.82917336 19.15501821 -27.00048913 17.99853261 -28 15 C-26.453125 14.7215625 -26.453125 14.7215625 -24.875 14.4375 C-20.79718895 13.28525279 -19.15134294 11.13132468 -16.59375 7.88671875 C-11.85183478 2.27312794 -7.42543897 -0.92817987 0 0 Z " fill="#3D84AC" transform="translate(243,348)"/>
<path d="M0 0 C1.26287842 0.00491455 2.52575684 0.0098291 3.8269043 0.01489258 C27.02774441 0.30070746 46.87336804 5.42711939 68.125 14.3125 C67.465 14.9725 66.805 15.6325 66.125 16.3125 C63.815 15.6525 61.505 14.9925 59.125 14.3125 C59.125 13.6525 59.125 12.9925 59.125 12.3125 C58.196875 12.498125 57.26875 12.68375 56.3125 12.875 C53.125 13.3125 53.125 13.3125 50.125 12.3125 C47.7843935 12.59019908 45.44875692 12.91789977 43.125 13.3125 C43.125 12.6525 43.125 11.9925 43.125 11.3125 C42.465 11.3125 41.805 11.3125 41.125 11.3125 C41.455 9.9925 41.785 8.6725 42.125 7.3125 C40.990625 7.168125 39.85625 7.02375 38.6875 6.875 C35.125 6.3125 35.125 6.3125 34.125 5.3125 C31.3284779 5.0740597 28.55166428 4.88962543 25.75 4.75 C24.57824219 4.68522461 24.57824219 4.68522461 23.3828125 4.61914062 C20.29356057 4.45251145 17.21921916 4.3125 14.125 4.3125 C12.805 4.3125 11.485 4.3125 10.125 4.3125 C10.125 3.6525 10.125 2.9925 10.125 2.3125 C7.49905216 2.4261515 4.87488453 2.55289054 2.25 2.6875 C1.50363281 2.7184375 0.75726563 2.749375 -0.01171875 2.78125 C-4.40973188 2.86893831 -4.40973188 2.86893831 -7.875 5.3125 C-8.865 4.9825 -9.855 4.6525 -10.875 4.3125 C-10.875 3.9825 -10.875 3.6525 -10.875 3.3125 C-13.64816676 3.56733154 -16.41734555 3.84059449 -19.1875 4.125 C-19.97318359 4.19525391 -20.75886719 4.26550781 -21.56835938 4.33789062 C-22.32568359 4.41845703 -23.08300781 4.49902344 -23.86328125 4.58203125 C-24.55977783 4.65010986 -25.25627441 4.71818848 -25.97387695 4.78833008 C-28.36529736 5.4476828 -29.35045805 6.37852803 -30.875 8.3125 C-31.060625 9.5809375 -31.060625 9.5809375 -31.25 10.875 C-31.45625 11.679375 -31.6625 12.48375 -31.875 13.3125 C-34.4375 14.625 -34.4375 14.625 -36.875 15.3125 C-36.875 14.3225 -36.875 13.3325 -36.875 12.3125 C-37.679375 12.456875 -38.48375 12.60125 -39.3125 12.75 C-42.03618197 13.18005505 -44.6971404 13.4933777 -47.4375 13.75 C-52.02047117 14.24378814 -55.53415607 14.97165607 -58.875 18.3125 C-58.875 17.6525 -58.875 16.9925 -58.875 16.3125 C-61.99697478 17.6214572 -61.99697478 17.6214572 -63.875 20.3125 C-65.6075 21.2096875 -65.6075 21.2096875 -67.375 22.125 C-70.46603796 23.77179349 -70.46603796 23.77179349 -71.8125 27.0625 C-71.833125 27.805 -71.85375 28.5475 -71.875 29.3125 C-73.525 28.3225 -75.175 27.3325 -76.875 26.3125 C-77.143125 26.910625 -77.41125 27.50875 -77.6875 28.125 C-78.87349039 30.30971913 -80.09556482 31.60720795 -81.875 33.3125 C-82.535 34.3025 -83.195 35.2925 -83.875 36.3125 C-85.091875 36.580625 -86.30875 36.84875 -87.5625 37.125 C-94.15881736 38.59483159 -98.10420338 42.83241546 -101.6875 48.375 C-103.04770762 50.68028695 -104.02139175 52.71723012 -104.9375 55.25 C-105.875 57.3125 -105.875 57.3125 -108 58.125 C-108.61875 58.186875 -109.2375 58.24875 -109.875 58.3125 C-109.875 59.3025 -109.875 60.2925 -109.875 61.3125 C-111.36 61.8075 -111.36 61.8075 -112.875 62.3125 C-112.215 64.2925 -111.555 66.2725 -110.875 68.3125 C-111.6175 68.395 -112.36 68.4775 -113.125 68.5625 C-116.62432271 69.51686074 -117.88616787 70.25275826 -119.875 73.3125 C-119.90681247 76.38770519 -119.46717226 79.30014547 -118.875 82.3125 C-120.75 83.375 -120.75 83.375 -122.875 84.3125 C-123.535 83.9825 -124.195 83.6525 -124.875 83.3125 C-124.875 83.9725 -124.875 84.6325 -124.875 85.3125 C-125.865 85.8075 -125.865 85.8075 -126.875 86.3125 C-127.96670637 88.05436758 -127.96670637 88.05436758 -128.9375 90.125 C-129.44990234 91.15560547 -129.44990234 91.15560547 -129.97265625 92.20703125 C-131.32656174 95.36614407 -131.875 97.86615599 -131.875 101.3125 C-132.36613281 101.76238281 -132.85726562 102.21226563 -133.36328125 102.67578125 C-135.46784849 104.95436956 -135.18104965 106.45722562 -135.0625 109.5 C-135.03542969 110.40105469 -135.00835937 111.30210938 -134.98046875 112.23046875 C-134.94566406 112.91753906 -134.91085938 113.60460937 -134.875 114.3125 C-135.535 114.3125 -136.195 114.3125 -136.875 114.3125 C-137.019375 115.26125 -137.16375 116.21 -137.3125 117.1875 C-137.875 120.3125 -137.875 120.3125 -138.875 122.3125 C-138.215 122.3125 -137.555 122.3125 -136.875 122.3125 C-136.545 124.6225 -136.215 126.9325 -135.875 129.3125 C-136.535 129.6425 -137.195 129.9725 -137.875 130.3125 C-138.205 131.3025 -138.535 132.2925 -138.875 133.3125 C-139.535 133.6425 -140.195 133.9725 -140.875 134.3125 C-140.93391984 137.93742967 -140.9689009 141.56223334 -141 145.1875 C-141.02513672 146.70730469 -141.02513672 146.70730469 -141.05078125 148.2578125 C-141.09309062 154.85807349 -140.45171725 160.90075353 -138.875 167.3125 C-137.555 167.3125 -136.235 167.3125 -134.875 167.3125 C-134.875 170.2825 -134.875 173.2525 -134.875 176.3125 C-135.865 175.9825 -136.855 175.6525 -137.875 175.3125 C-137.38386719 176.12460937 -137.38386719 176.12460937 -136.8828125 176.953125 C-135.65835233 179.81969067 -135.67607854 181.9577987 -135.75 185.0625 C-135.76804687 186.04734375 -135.78609375 187.0321875 -135.8046875 188.046875 C-135.82789063 188.79453125 -135.85109375 189.5421875 -135.875 190.3125 C-139.25544941 183.77696447 -140.3140899 177.10626324 -141.41015625 169.88671875 C-141.74625176 167.33570166 -141.74625176 167.33570166 -142.875 165.3125 C-142.99856638 162.71629537 -143.06344534 160.14812423 -143.078125 157.55078125 C-143.08382507 156.76793259 -143.08952515 155.98508392 -143.09539795 155.17851257 C-143.10486275 153.51151888 -143.11138778 151.84450636 -143.11523438 150.17749023 C-143.12479027 147.67981702 -143.15573246 145.18302143 -143.1875 142.68554688 C-143.40745351 109.48332614 -130.01272962 79.48057161 -110 53.5625 C-109.52328857 52.94101074 -109.04657715 52.31952148 -108.55541992 51.67919922 C-107.3772381 50.18400168 -106.13152792 48.742488 -104.875 47.3125 C-104.215 47.3125 -103.555 47.3125 -102.875 47.3125 C-102.61203125 46.7246875 -102.3490625 46.136875 -102.078125 45.53125 C-98.92120891 39.70940475 -93.3500201 35.7966037 -87.875 32.3125 C-87.25625 31.66087891 -87.25625 31.66087891 -86.625 30.99609375 C-73.24373371 18.12259873 -54.33207702 10.50856776 -36.875 5.3125 C-35.83085937 4.99410156 -34.78671875 4.67570313 -33.7109375 4.34765625 C-22.54991664 1.11514156 -11.59949236 -0.053893 0 0 Z " fill="#2161CD" transform="translate(238.875,10.6875)"/>
<path d="M0 0 C2.64 0 5.28 0 8 0 C4.985863 6.13932115 1.21710822 11.49667797 -2.99804688 16.8527832 C-6.08286915 20.77938257 -9.01009184 24.78581149 -11.875 28.875 C-16.42223482 35.33542833 -21.31232407 41.48209747 -26.28125 47.62109375 C-29.28949114 51.34099524 -32.16749829 55.14465045 -35 59 C-35.33 58.34 -35.66 57.68 -36 57 C-35.06421005 54.64018187 -34.06652192 52.30368736 -33 50 C-33.66 50 -34.32 50 -35 50 C-37.33333333 50 -39.66666667 50 -42 50 C-42 51.65 -42 53.3 -42 55 C-42.33 55 -42.66 55 -43 55 C-43 53.35 -43 51.7 -43 50 C-43.99 49.67 -44.98 49.34 -46 49 C-45.34 49 -44.68 49 -44 49 C-44.33 48.34 -44.66 47.68 -45 47 C-45.99 46.67 -46.98 46.34 -48 46 C-48 45.34 -48 44.68 -48 44 C-49.32 44 -50.64 44 -52 44 C-52 43.34 -52 42.68 -52 42 C-52.66 41.67 -53.32 41.34 -54 41 C-46.78194245 40.2061358 -40.19172157 39.92124177 -33 41 C-33 40.34 -33 39.68 -33 39 C-32.01 38.505 -32.01 38.505 -31 38 C-28.06940713 33.28556799 -26.96575789 28.29508465 -25.6953125 22.92578125 C-24.90034189 19.58065213 -23.97398652 16.29656975 -23 13 C-22.67 13 -22.34 13 -22 13 C-20.40816327 25.6122449 -20.40816327 25.6122449 -24 31 C-21.64632287 31.6878236 -21.64632287 31.6878236 -19 32 C-15.87525373 30.36526484 -15.87525373 30.36526484 -15.3125 27.875 C-15.1578125 26.946875 -15.1578125 26.946875 -15 26 C-14.34 26 -13.68 26 -13 26 C-13 25.34 -13 24.68 -13 24 C-12.195625 23.2575 -11.39125 22.515 -10.5625 21.75 C-7.68338114 18.6602139 -7.1805781 17.15329637 -7 13 C-7.495 11.515 -7.495 11.515 -8 10 C-7.34 10 -6.68 10 -6 10 C-5.67 9.34 -5.34 8.68 -5 8 C-4.154375 7.38125 -3.30875 6.7625 -2.4375 6.125 C-1.2309375 5.073125 -1.2309375 5.073125 0 4 C0 2.68 0 1.36 0 0 Z M-25 32 C-25.66 33.32 -26.32 34.64 -27 36 C-26.01 36 -25.02 36 -24 36 C-24.33 34.68 -24.66 33.36 -25 32 Z " fill="#269CD8" transform="translate(304,336)"/>
<path d="M0 0 C0.99 0 1.98 0 3 0 C1.67026717 7.30977424 -0.7679177 13.48744507 -3.9375 20.1875 C-4.42694092 21.23486328 -4.91638184 22.28222656 -5.4206543 23.36132812 C-6.93370732 26.58077546 -8.46373745 29.79157092 -10 33 C-10.45084961 33.94697754 -10.90169922 34.89395508 -11.36621094 35.86962891 C-24.30109705 62.88863451 -40.27960669 88.19202514 -57 113 C-58.33565845 114.9984622 -59.66805671 116.99905792 -61 119 C-61.89893758 115.90765472 -62.16349234 113.09202643 -62.1875 109.875 C-62.20167969 109.00617188 -62.21585937 108.13734375 -62.23046875 107.2421875 C-62 105 -62 105 -60 103 C-57.37886292 103 -55.49064888 103.31292445 -53 104 C-53 103.34 -53 102.68 -53 102 C-52.34 102 -51.68 102 -51 102 C-51 101.01 -51 100.02 -51 99 C-50.34 99 -49.68 99 -49 99 C-46.75904239 93.7710989 -45.78409533 90.05814528 -46.75 84.4375 C-47.0546875 82.09765625 -47.0546875 82.09765625 -47 80 C-44.875 77.375 -44.875 77.375 -42 76 C-39.1875 76.25 -39.1875 76.25 -37 77 C-37.20625 76.0925 -37.4125 75.185 -37.625 74.25 C-38.0127245 70.88972103 -37.80411967 69.75924185 -36 67 C-36.66 66.67 -37.32 66.34 -38 66 C-36.18320345 63.99196171 -34.75888745 62.87664009 -32.3125 61.625 C-31.549375 61.08875 -30.78625 60.5525 -30 60 C-29.58219121 57.37305578 -29.58219121 57.37305578 -30 55 C-29.01 55.99 -28.02 56.98 -27 58 C-27 57.01 -27 56.02 -27 55 C-26.01 54.67 -25.02 54.34 -24 54 C-22.76722873 52.13977928 -22.76722873 52.13977928 -21.8125 49.9375 C-21.46832031 49.20402344 -21.12414062 48.47054687 -20.76953125 47.71484375 C-20.51558594 47.14894531 -20.26164062 46.58304687 -20 46 C-20.66 46 -21.32 46 -22 46 C-22 44.02 -22 42.04 -22 40 C-19.92446352 39.4465236 -18.15634036 39 -16 39 C-14.73694665 33.92523206 -13.72963916 29.27203646 -14 24 C-10.25 22.875 -10.25 22.875 -8 24 C-7.61908203 22.39318359 -7.61908203 22.39318359 -7.23046875 20.75390625 C-6.88348742 19.35660306 -6.53579423 17.95947651 -6.1875 16.5625 C-6.02185547 15.85544922 -5.85621094 15.14839844 -5.68554688 14.41992188 C-5.22048061 12.58598132 -4.6181087 10.78817399 -4 9 C-3.01 8.67 -2.02 8.34 -1 8 C-0.40267181 5.23735711 0 2.83967231 0 0 Z " fill="#2FA1E3" transform="translate(374,217)"/>
<path d="M0 0 C2.79827632 1.11833382 5.39726245 2.48567997 8 4 C8 3.34 8 2.68 8 2 C10.70042181 0.6497891 12.92451627 0.75688993 15.9375 0.6875 C16.99839844 0.65011719 18.05929687 0.61273438 19.15234375 0.57421875 C22 1 22 1 23.8359375 2.84765625 C25.12756541 5.23586758 25.62789164 7.32081983 26 10 C26.66 9.67 27.32 9.34 28 9 C28.33 8.01 28.66 7.02 29 6 C29.66 6 30.32 6 31 6 C31.33 5.01 31.66 4.02 32 3 C32.495 3.99 32.495 3.99 33 5 C31.17064224 9.34472468 28.92611329 13.30210351 26 17 C23.15105714 18.1088371 22.04116684 17.74477555 19 17 C19.495 15.948125 19.99 14.89625 20.5 13.8125 C21.81786289 10.74784716 22.39711537 8.37548067 22 5 C20.79141448 3.5761004 20.79141448 3.5761004 17.25 3.6875 C14.06550218 3.73904763 12.91727015 4.044812 10 5.625 C7.69901407 7.90112435 7.69901407 7.90112435 7.6875 11.25 C7.8421875 12.61125 7.8421875 12.61125 8 14 C8.67095703 13.15115234 8.67095703 13.15115234 9.35546875 12.28515625 C10.26232422 11.18494141 10.26232422 11.18494141 11.1875 10.0625 C11.77917969 9.33160156 12.37085938 8.60070312 12.98046875 7.84765625 C15.32505203 5.70261197 16.88391498 5.33905588 20 5 C19.34215037 8.29680965 18.10579427 10.84117922 16.4375 13.75 C15.98246094 14.54921875 15.52742188 15.3484375 15.05859375 16.171875 C14.70925781 16.77515625 14.35992187 17.3784375 14 18 C12.35 18 10.7 18 9 18 C9.99 18.99 10.98 19.98 12 21 C11.34 23.31 10.68 25.62 10 28 C9.67 28 9.34 28 9 28 C8.90203125 27.26394531 8.8040625 26.52789062 8.703125 25.76953125 C7.54506458 18.13205407 7.54506458 18.13205407 3 12 C2.38125 12.66 1.7625 13.32 1.125 14 C-1 16 -1 16 -3 16 C-1.68938409 11.76570244 -0.05643741 7.92592596 2 4 C-2.10444057 3.65838818 -4.38077958 3.62354679 -7.94921875 5.79296875 C-8.85285156 6.58316406 -9.75648438 7.37335938 -10.6875 8.1875 C-12.05455078 9.35345703 -12.05455078 9.35345703 -13.44921875 10.54296875 C-16.06164345 12.9362515 -16.06164345 12.9362515 -18.12890625 15.78125 C-20 18 -20 18 -23.25 18.3125 C-24.1575 18.209375 -25.065 18.10625 -26 18 C-25.01 19.32 -24.02 20.64 -23 22 C-23.66 22.99 -24.32 23.98 -25 25 C-25.39013716 26.9896995 -25.73202649 28.99019869 -26 31 C-26.33 31 -26.66 31 -27 31 C-27.13526139 28.75165504 -27.23210804 26.50097486 -27.3125 24.25 C-27.39951172 22.37054688 -27.39951172 22.37054688 -27.48828125 20.453125 C-27 17 -27 17 -24.60546875 14.546875 C-22 13 -22 13 -20 13 C-20 12.34 -20 11.68 -20 11 C-19.34 11 -18.68 11 -18 11 C-18 10.34 -18 9.68 -18 9 C-16.01310269 7.64721885 -14.01254782 6.31431695 -12 5 C-11.67 4.34 -11.34 3.68 -11 3 C-10.34 3 -9.68 3 -9 3 C-9 2.34 -9 1.68 -9 1 C-5.87143524 -0.56428238 -3.47287869 -0.28007086 0 0 Z " fill="#2A6D94" transform="translate(241,345)"/>
<path d="M0 0 C3.375 -0.1875 3.375 -0.1875 7 0 C7.66 0.99 8.32 1.98 9 3 C11.17528363 3.32612375 11.17528363 3.32612375 13.5625 3.125 C15.04055167 3.05405352 16.52025793 3.00579155 18 3 C18.495 3.495 18.495 3.495 19 4 C19.969375 3.979375 20.93875 3.95875 21.9375 3.9375 C25 4 25 4 27 6 C27.46214175 11.36084429 26.85472248 15.1261066 24.7890625 20.05859375 C23.85689941 22.24391384 23.85689941 22.24391384 23 25.625 C21.99954369 29.00154006 20.66183682 31.90294048 19 35 C18.67 35 18.34 35 18 35 C17.8125 32.1875 17.8125 32.1875 18 29 C18.73476563 28.2884375 18.73476563 28.2884375 19.484375 27.5625 C21.41378189 25.57342073 21.35544982 24.53946182 21.4375 21.8125 C21.81787227 16.76843299 23.52998189 13.3822902 26 9 C23.69 9 21.38 9 19 9 C18.67 9.66 18.34 10.32 18 11 C17.34 11 16.68 11 16 11 C15.896875 11.639375 15.79375 12.27875 15.6875 12.9375 C15.460625 13.618125 15.23375 14.29875 15 15 C14.01 15.33 13.02 15.66 12 16 C11.690625 14.906875 11.38125 13.81375 11.0625 12.6875 C10.41662103 10.44592006 9.7376883 8.2130649 9 6 C4.38 6.33 -0.24 6.66 -5 7 C-5 7.66 -5 8.32 -5 9 C-7.15665209 8.53786027 -8.9099254 8.05038071 -10.84375 6.96875 C-13.33241088 5.85065598 -15.0384976 5.79524993 -17.75 5.875 C-18.94882813 5.90207031 -18.94882813 5.90207031 -20.171875 5.9296875 C-21.07679688 5.96449219 -21.07679688 5.96449219 -22 6 C-22 6.66 -22 7.32 -22 8 C-22.66 8 -23.32 8 -24 8 C-24.226875 8.61875 -24.45375 9.2375 -24.6875 9.875 C-26.37929835 12.61410209 -27.99244161 13.05024472 -31 14 C-31 14.66 -31 15.32 -31 16 C-31.66 16 -32.32 16 -33 16 C-33 16.66 -33 17.32 -33 18 C-33.969375 18.433125 -34.93875 18.86625 -35.9375 19.3125 C-37.70320641 20.25692415 -37.70320641 20.25692415 -39 22 C-39.85285556 26.32864428 -39.98727032 30.59553138 -40 35 C-40.66 34.67 -41.32 34.34 -42 34 C-42 33.34 -42 32.68 -42 32 C-42.66 32 -43.32 32 -44 32 C-45.6442351 27.06729471 -44.18615592 24.45975807 -42 20 C-41.34 20 -40.68 20 -40 20 C-40 19.34 -40 18.68 -40 18 C-39.34 17.34 -38.68 16.68 -38 16 C-37.3574765 13.93125966 -37.3574765 13.93125966 -37 12 C-36.01 12.33 -35.02 12.66 -34 13 C-33.01 12.67 -32.02 12.34 -31 12 C-30.71125 11.175 -30.4225 10.35 -30.125 9.5 C-29.568125 8.2625 -29.568125 8.2625 -29 7 C-27.34178227 6.62690101 -25.67422986 6.29299023 -24 6 C-22.63979849 4.03241727 -22.63979849 4.03241727 -22 2 C-19.98177083 2.29296875 -17.96354167 2.5859375 -15.9453125 2.87890625 C-13.91859333 3.1684297 -13.91859333 3.1684297 -12 2 C-11.01 2.66 -10.02 3.32 -9 4 C-7.32577014 3.70700977 -5.65821773 3.37309899 -4 3 C-3.01 3.33 -2.02 3.66 -1 4 C-0.67 2.68 -0.34 1.36 0 0 Z " fill="#2586C1" transform="translate(254,340)"/>
<path d="M0 0 C0.99 1.32 1.98 2.64 3 4 C1 7 1 7 -1.125 7.6875 C-1.74375 7.790625 -2.3625 7.89375 -3 8 C-3.020625 9.093125 -3.04125 10.18625 -3.0625 11.3125 C-3.371875 12.529375 -3.68125 13.74625 -4 15 C-7.375 16.875 -7.375 16.875 -11 18 C-11.99 18.33 -12.98 18.66 -14 19 C-14.33 19.99 -14.66 20.98 -15 22 C-16.65 22 -18.3 22 -20 22 C-19.7525 22.7425 -19.505 23.485 -19.25 24.25 C-19 27 -19 27 -20.375 29.3125 C-24.17947178 31.75823186 -27.59703436 31.33868966 -32 31 C-32 31.66 -32 32.32 -32 33 C-33.485 33.495 -33.485 33.495 -35 34 C-37.45098576 37.66841618 -37.2415891 40.70318136 -36.69140625 44.9375 C-36.1051193 47.38094485 -36.1051193 47.38094485 -32.9375 49.0625 C-31.968125 49.371875 -30.99875 49.68125 -30 50 C-30 50.66 -30 51.32 -30 52 C-29.34 52.33 -28.68 52.66 -28 53 C-28.66 53.99 -29.32 54.98 -30 56 C-29.505 56.94875 -29.01 57.8975 -28.5 58.875 C-27 62 -27 62 -27 64 C-25.68 64.66 -24.36 65.32 -23 66 C-23.66 66.99 -24.32 67.98 -25 69 C-25.79300747 67.87763152 -26.58596512 66.75522785 -27.37890625 65.6328125 C-27.88518555 64.91617432 -28.39146484 64.19953613 -28.91308594 63.46118164 C-30.56448215 61.12219254 -32.21388165 58.78180358 -33.86328125 56.44140625 C-35.68430172 53.85875886 -37.51127914 51.28099307 -39.35546875 48.71484375 C-39.98066406 47.83957031 -40.60585937 46.96429688 -41.25 46.0625 C-41.79140625 45.31097656 -42.3328125 44.55945313 -42.890625 43.78515625 C-44 42 -44 42 -44 40 C-44.66 39.67 -45.32 39.34 -46 39 C-43.47405029 36.14645272 -40.62608615 34.53309536 -37.3125 32.6875 C-32.76419614 30.09634508 -28.59261785 27.35437265 -24.5234375 24.06640625 C-23 23 -23 23 -21 23 C-20.67 22.01 -20.34 21.02 -20 20 C-18.46875 18.4921875 -18.46875 18.4921875 -16.5 16.875 C-10.49849918 11.78183444 -4.59646431 6.42345012 0 0 Z " fill="#3692D3" transform="translate(212,288)"/>
<path d="M0 0 C0.66 0.66 1.32 1.32 2 2 C1.69690596 6.09176955 1.12300942 9.46165096 -1 13 C0.98 13 2.96 13 5 13 C5.40992188 12.22914063 5.81984375 11.45828125 6.2421875 10.6640625 C6.78101563 9.66117187 7.31984375 8.65828125 7.875 7.625 C8.40867187 6.62726563 8.94234375 5.62953125 9.4921875 4.6015625 C11 2 11 2 13 0 C15.125 0.375 15.125 0.375 17 1 C16.3503125 2.12148438 16.3503125 2.12148438 15.6875 3.265625 C15.130625 4.25046875 14.57375 5.2353125 14 6.25 C13.443125 7.22453125 12.88625 8.1990625 12.3125 9.203125 C10.71678496 12.08859689 10.71678496 12.08859689 11 16 C10.01 16 9.02 16 8 16 C7.34 18.97 6.68 21.94 6 25 C6.66 25.33 7.32 25.66 8 26 C6.34385343 26.38218767 4.67542976 26.71395102 3 27 C2.67 26.67 2.34 26.34 2 26 C2.08937803 24.47480724 2.24537146 22.95318071 2.4375 21.4375 C2.53933594 20.61121094 2.64117187 19.78492188 2.74609375 18.93359375 C2.82988281 18.29550781 2.91367187 17.65742188 3 17 C0.69 17 -1.62 17 -4 17 C-4.99 20.3 -5.98 23.6 -7 27 C-8.32 26.67 -9.64 26.34 -11 26 C-10.125 20.25 -10.125 20.25 -9 18 C-9.99 17.67 -10.98 17.34 -12 17 C-12 16.34 -12 15.68 -12 15 C-10.86498047 14.94005859 -10.86498047 14.94005859 -9.70703125 14.87890625 C-6.74422292 14.22763971 -6.74422292 14.22763971 -5.19921875 11.27734375 C-4.70035156 10.17519531 -4.20148438 9.07304687 -3.6875 7.9375 C-3.17574219 6.83277344 -2.66398437 5.72804688 -2.13671875 4.58984375 C-1.76160156 3.73519531 -1.38648438 2.88054687 -1 2 C-5.55109057 4.13254654 -8.05476052 5.89770216 -11 10 C-11.66 10.66 -12.32 11.32 -13 12 C-14 11 -14 11 -14.4375 8.25 C-14 5 -14 5 -11.5 2.125 C-7.68240366 -0.7018392 -4.62467809 -0.53954578 0 0 Z " fill="#D9E2E6" transform="translate(262,348)"/>
<path d="M0 0 C0 3.72207387 -1.17964568 5.46395589 -3 8.6875 C-3.556875 9.68136719 -4.11375 10.67523438 -4.6875 11.69921875 C-5.3371875 12.83810547 -5.3371875 12.83810547 -6 14 C-5.34 14 -4.68 14 -4 14 C-4 14.66 -4 15.32 -4 16 C-4.99 16.33 -5.98 16.66 -7 17 C-7.80212628 18.87387216 -7.80212628 18.87387216 -8.1875 21.0625 C-8.34605469 21.79597656 -8.50460938 22.52945312 -8.66796875 23.28515625 C-8.83232422 24.13400391 -8.83232422 24.13400391 -9 25 C-8.34 25.33 -7.68 25.66 -7 26 C-8 27 -8 27 -10.5625 27.0625 C-11.366875 27.041875 -12.17125 27.02125 -13 27 C-13.125 19.25 -13.125 19.25 -12 17 C-14.92196694 17.0973989 -17.23450778 17.17511131 -20 18 C-22.50893796 20.95926015 -23.77913986 23.33741958 -25 27 C-25.99 26.67 -26.98 26.34 -28 26 C-27.835 25.05125 -27.67 24.1025 -27.5 23.125 C-26.93292312 19.5807695 -26.86221073 18.41336781 -28 15 C-26.453125 14.7215625 -26.453125 14.7215625 -24.875 14.4375 C-20.79718895 13.28525279 -19.15134294 11.13132468 -16.59375 7.88671875 C-11.85183478 2.27312794 -7.42543897 -0.92817987 0 0 Z " fill="#DEEBF2" transform="translate(243,348)"/>
<path d="M0 0 C2.3125 0.5625 2.3125 0.5625 5 2 C5.4125 3.155 5.825 4.31 6.25 5.5 C7.56790922 9.10126508 7.56790922 9.10126508 10.1484375 9.8671875 C11.76901184 10.19948192 13.4005597 10.48292578 15.0390625 10.7109375 C17 11 17 11 18 12 C18.66 11.01 19.32 10.02 20 9 C20.33 10.65 20.66 12.3 21 14 C21.66 14 22.32 14 23 14 C24.625 16.5 24.625 16.5 26 19 C28.76276177 18.47731534 31.3260876 17.89130413 34 17 C33.67 19.31 33.34 21.62 33 24 C32.01 24.33 31.02 24.66 30 25 C29.67 25.66 29.34 26.32 29 27 C27.35 27 25.7 27 24 27 C23.67 27.66 23.34 28.32 23 29 C23.99 29.33 24.98 29.66 26 30 C27.1875 33.0625 27.1875 33.0625 28 36 C27.34 36 26.68 36 26 36 C24.84375 34.70703125 24.84375 34.70703125 23.5 32.8125 C21.22075682 29.66471026 18.8992889 26.5621929 16.51123047 23.49584961 C12.35722932 18.1574033 8.31593256 12.74775675 4.375 7.25 C3.93704102 6.64140137 3.49908203 6.03280273 3.04785156 5.40576172 C0 1.12378815 0 1.12378815 0 0 Z M19 7 C19.66 7 20.32 7 21 7 C20.67 7.66 20.34 8.32 20 9 C19.67 8.34 19.34 7.68 19 7 Z " fill="#2596D7" transform="translate(189,358)"/>
<path d="M0 0 C2.64 0 5.28 0 8 0 C4.98969527 6.13151543 1.22761642 11.48384597 -2.98266602 16.83300781 C-6.64993339 21.50056215 -10.11311881 26.28945389 -13.51245117 31.1550293 C-21.58538545 42.62994721 -21.58538545 42.62994721 -26 44 C-26.66 43.67 -27.32 43.34 -28 43 C-27.34 40.69 -26.68 38.38 -26 36 C-25.34 36 -24.68 36 -24 36 C-24 34.68 -24 33.36 -24 32 C-20.04 31.505 -20.04 31.505 -16 31 C-15.67 29.35 -15.34 27.7 -15 26 C-14.34 26 -13.68 26 -13 26 C-13 25.34 -13 24.68 -13 24 C-12.195625 23.2575 -11.39125 22.515 -10.5625 21.75 C-7.68338114 18.6602139 -7.1805781 17.15329637 -7 13 C-7.33 12.01 -7.66 11.02 -8 10 C-7.34 10 -6.68 10 -6 10 C-5.67 9.34 -5.34 8.68 -5 8 C-4.154375 7.38125 -3.30875 6.7625 -2.4375 6.125 C-1.2309375 5.073125 -1.2309375 5.073125 0 4 C0 2.68 0 1.36 0 0 Z " fill="#25A0DF" transform="translate(304,336)"/>
<path d="M0 0 C0.99 0 1.98 0 3 0 C1.67022493 7.31000644 -0.76848135 13.48697529 -3.9375 20.1875 C-4.42041504 21.22326172 -4.90333008 22.25902344 -5.40087891 23.32617188 C-8.80944562 30.59101741 -12.30915975 37.81113323 -15.875 45 C-16.31448975 45.88840576 -16.75397949 46.77681152 -17.20678711 47.69213867 C-19.86713092 52.986046 -22.75945002 58.03958571 -26 63 C-26.33 62.34 -26.66 61.68 -27 61 C-25.92591043 58.39525962 -24.79954367 55.90033962 -23.5625 53.375 C-23.22412109 52.66859375 -22.88574219 51.9621875 -22.53710938 51.234375 C-21.69845121 49.48618616 -20.85012153 47.74264314 -20 46 C-20.66 46 -21.32 46 -22 46 C-22 44.02 -22 42.04 -22 40 C-19.92446352 39.4465236 -18.15634036 39 -16 39 C-14.73694665 33.92523206 -13.72963916 29.27203646 -14 24 C-10.25 22.875 -10.25 22.875 -8 24 C-7.61908203 22.39318359 -7.61908203 22.39318359 -7.23046875 20.75390625 C-6.88348742 19.35660306 -6.53579423 17.95947651 -6.1875 16.5625 C-6.02185547 15.85544922 -5.85621094 15.14839844 -5.68554688 14.41992188 C-5.22048061 12.58598132 -4.6181087 10.78817399 -4 9 C-3.01 8.67 -2.02 8.34 -1 8 C-0.40267181 5.23735711 0 2.83967231 0 0 Z " fill="#3399D5" transform="translate(374,217)"/>
<path d="M0 0 C0.33 0.99 0.66 1.98 1 3 C0.54625 3.70125 0.0925 4.4025 -0.375 5.125 C-2.56363437 8.99719928 -2.7232347 12.61947334 -3 17 C-3.99 17.33 -4.98 17.66 -6 18 C-6.66 21.3 -7.32 24.6 -8 28 C-14.27 28 -20.54 28 -27 28 C-26.67 27.34 -26.34 26.68 -26 26 C-25.34 26 -24.68 26 -24 26 C-23.87625 25.0925 -23.7525 24.185 -23.625 23.25 C-23.07890323 20.41029677 -22.42736197 18.47409409 -21 16 C-18.69 16 -16.38 16 -14 16 C-14 18.97 -14 21.94 -14 25 C-12.68 25 -11.36 25 -10 25 C-10.20625 24.278125 -10.4125 23.55625 -10.625 22.8125 C-11.05952211 19.55358415 -10.41680669 17.91695496 -9 15 C-8.01 15 -7.02 15 -6 15 C-6.33644531 14.17048828 -6.33644531 14.17048828 -6.6796875 13.32421875 C-7.1346616 10.02288232 -5.89828975 8.57866858 -4.125 5.8125 C-3.57070313 4.93207031 -3.01640625 4.05164063 -2.4453125 3.14453125 C-1 1 -1 1 0 0 Z " fill="#327598" transform="translate(279,349)"/>
<path d="M0 0 C-0.969375 0.639375 -1.93875 1.27875 -2.9375 1.9375 C-5.76036269 3.6965259 -5.76036269 3.6965259 -7 5 C-7.04080783 6.99958364 -7.04254356 9.00045254 -7 11 C-6.55269531 10.43410156 -6.10539063 9.86820312 -5.64453125 9.28515625 C-5.03996094 8.55167969 -4.43539062 7.81820313 -3.8125 7.0625 C-3.22082031 6.33160156 -2.62914062 5.60070312 -2.01953125 4.84765625 C0.32505203 2.70261197 1.88391498 2.33905588 5 2 C4.34215037 5.29680965 3.10579427 7.84117922 1.4375 10.75 C0.98246094 11.54921875 0.52742188 12.3484375 0.05859375 13.171875 C-0.29074219 13.77515625 -0.64007813 14.3784375 -1 15 C-2.65 15 -4.3 15 -6 15 C-5.01 15.99 -4.02 16.98 -3 18 C-3.66 20.31 -4.32 22.62 -5 25 C-5.33 25 -5.66 25 -6 25 C-6.09796875 24.26394531 -6.1959375 23.52789062 -6.296875 22.76953125 C-7.45493542 15.13205407 -7.45493542 15.13205407 -12 9 C-12.928125 9.99 -12.928125 9.99 -13.875 11 C-16 13 -16 13 -18 13 C-16.68139111 8.38486888 -14.78644563 4.90102388 -12 1 C-9.03 1.495 -9.03 1.495 -6 2 C-6 1.34 -6 0.68 -6 0 C-3.50907189 -1.24546405 -2.58919267 -0.7767578 0 0 Z " fill="#29617F" transform="translate(256,348)"/>
<path d="M0 0 C0.99 0 1.98 0 3 0 C2.67 1.65 2.34 3.3 2 5 C2.66 5 3.32 5 4 5 C4 5.66 4 6.32 4 7 C3.01 7.33 2.02 7.66 1 8 C0.19787372 9.87387216 0.19787372 9.87387216 -0.1875 12.0625 C-0.42533203 13.16271484 -0.42533203 13.16271484 -0.66796875 14.28515625 C-0.83232422 15.13400391 -0.83232422 15.13400391 -1 16 C-0.34 16.33 0.32 16.66 1 17 C0 18 0 18 -2.5625 18.0625 C-3.366875 18.041875 -4.17125 18.02125 -5 18 C-5.125 10.25 -5.125 10.25 -4 8 C-6.92196694 8.0973989 -9.23450778 8.17511131 -12 9 C-14.50893796 11.95926015 -15.77913986 14.33741958 -17 18 C-17.99 17.67 -18.98 17.34 -20 17 C-19.835 16.05125 -19.67 15.1025 -19.5 14.125 C-18.93292312 10.5807695 -18.86221073 9.41336781 -20 6 C-16.7 5.34 -13.4 4.68 -10 4 C-10 4.66 -10 5.32 -10 6 C-7.36 6 -4.72 6 -2 6 C-1.34 4.02 -0.68 2.04 0 0 Z " fill="#E6EFF5" transform="translate(235,357)"/>
<path d="M0 0 C2.4375 1.125 2.4375 1.125 5 3 C5.6875 5.75 5.6875 5.75 6 9 C6.350625 10.216875 6.70125 11.43375 7.0625 12.6875 C8 16 8 16 8 19 C5.525 18.01 5.525 18.01 3 17 C2.67 14.69 2.34 12.38 2 10 C1.01 10.33 0.02 10.66 -1 11 C-1.69258229 12.99117408 -2.35747635 14.9921136 -3 17 C-4.625 18.875 -4.625 18.875 -6 20 C-6.33 19.34 -6.66 18.68 -7 18 C-6.34 18 -5.68 18 -5 18 C-5.309375 16.700625 -5.309375 16.700625 -5.625 15.375 C-6.04047622 11.63571398 -5.39666276 9.45057859 -4 6 C-3.34 6 -2.68 6 -2 6 C-1.855625 5.195625 -1.71125 4.39125 -1.5625 3.5625 C-1 1 -1 1 0 0 Z " fill="#247AAA" transform="translate(244,358)"/>
<path d="M0 0 C0.33 0 0.66 0 1 0 C1.24584583 5.32077546 0.44940417 9.72248249 -1.23046875 14.7265625 C-1.46276688 15.43726898 -1.695065 16.14797546 -1.93440247 16.88021851 C-2.42597699 18.37275059 -2.92294744 19.86351532 -3.42504883 21.35253906 C-4.18578425 23.61988626 -4.9188432 25.89496741 -5.65039062 28.171875 C-6.13376429 29.62815367 -6.61873731 31.08390266 -7.10546875 32.5390625 C-7.3202739 33.21313141 -7.53507904 33.88720032 -7.75639343 34.58169556 C-9.32342814 39.12714062 -11.33703692 41.90473801 -15 45 C-17.23828125 45.70703125 -17.23828125 45.70703125 -19.3125 45.8125 C-21.1378125 45.9053125 -21.1378125 45.9053125 -23 46 C-23 45.34 -23 44.68 -23 44 C-22.34 44 -21.68 44 -21 44 C-21 43.01 -21 42.02 -21 41 C-17.04 41.495 -17.04 41.495 -13 42 C-13.350625 41.21625 -13.70125 40.4325 -14.0625 39.625 C-14.371875 38.75875 -14.68125 37.8925 -15 37 C-14.67 36.34 -14.34 35.68 -14 35 C-13.34 35 -12.68 35 -12 35 C-12 35.66 -12 36.32 -12 37 C-11.34 37 -10.68 37 -10 37 C-9.93941406 36.30132812 -9.87882813 35.60265625 -9.81640625 34.8828125 C-9.73261719 33.97273438 -9.64882812 33.06265625 -9.5625 32.125 C-9.48128906 31.22007812 -9.40007812 30.31515625 -9.31640625 29.3828125 C-9 27 -9 27 -8 25 C-7.34 25 -6.68 25 -6 25 C-6.226875 23.783125 -6.45375 22.56625 -6.6875 21.3125 C-7.09799842 18.10263038 -7.03715987 17.08493685 -5.6875 14 C-5.130625 13.34 -4.57375 12.68 -4 12 C-3.34 12 -2.68 12 -2 12 C-2.04125 11.13375 -2.0825 10.2675 -2.125 9.375 C-1.99542279 5.87641532 -1.23980344 3.25448403 0 0 Z " fill="#3481CB" transform="translate(257,160)"/>
<path d="M0 0 C0.33 0 0.66 0 1 0 C1.89510964 7.09202253 2.51360946 12.55838265 -1 19 C-1.37125 19.94875 -1.7425 20.8975 -2.125 21.875 C-5.11016507 26.85027512 -9.40825153 30.24407336 -15 31.875 C-15.66 31.91625 -16.32 31.9575 -17 32 C-17.33 31.01 -17.66 30.02 -18 29 C-23.55053286 29.74359673 -23.55053286 29.74359673 -29 31 C-29 30.34 -29 29.68 -29 29 C-29.66 28.67 -30.32 28.34 -31 28 C-23.78194245 27.2061358 -17.19172157 26.92124177 -10 28 C-10 27.34 -10 26.68 -10 26 C-9.34 25.67 -8.68 25.34 -8 25 C-5.06940713 20.28556799 -3.96575789 15.29508465 -2.6953125 9.92578125 C-1.90034189 6.58065213 -0.97398652 3.29656975 0 0 Z " fill="#2491CA" transform="translate(281,349)"/>
<path d="M0 0 C1.32 0.33 2.64 0.66 4 1 C3.3503125 2.12148438 3.3503125 2.12148438 2.6875 3.265625 C2.130625 4.25046875 1.57375 5.2353125 1 6.25 C0.443125 7.22453125 -0.11375 8.1990625 -0.6875 9.203125 C-2.28321504 12.08859689 -2.28321504 12.08859689 -2 16 C-2.99 16 -3.98 16 -5 16 C-5.66 18.97 -6.32 21.94 -7 25 C-6.34 25.33 -5.68 25.66 -5 26 C-6.65614657 26.38218767 -8.32457024 26.71395102 -10 27 C-11 26 -11 26 -11.25 23.25 C-10.96167013 19.50171167 -10.00258951 18.14692637 -8 15 C-7.33285587 13.34174876 -6.68902021 11.67402237 -6.0625 10 C-4.55056221 6.08880959 -2.89421438 3.10094398 0 0 Z " fill="#E3EEF3" transform="translate(275,348)"/>
<path d="M0 0 C0.33 0 0.66 0 1 0 C1.81510478 5.01844824 2.1722875 9.90860096 2.203125 14.99609375 C2.20882507 15.74729996 2.21452515 16.49850616 2.22039795 17.2724762 C2.22979647 18.85831316 2.23636131 20.44416921 2.24023438 22.0300293 C2.24984767 24.39994681 2.28088079 26.76896061 2.3125 29.13867188 C2.38169721 39.42451593 1.28017614 48.97221179 -1 59 C-1.33 59 -1.66 59 -2 59 C-2.02740022 57.14591875 -2.04657422 55.29171531 -2.0625 53.4375 C-2.07410156 52.40496094 -2.08570313 51.37242187 -2.09765625 50.30859375 C-2 47 -2 47 -1.51367188 43.8828125 C-0.92400768 39.42557895 -0.77305516 35.05659264 -0.68359375 30.56640625 C-0.66281265 29.68846909 -0.64203156 28.81053192 -0.62062073 27.9059906 C-0.55568055 25.12490015 -0.49650073 22.34372215 -0.4375 19.5625 C-0.39426186 17.66730896 -0.35064595 15.7721265 -0.30664062 13.87695312 C-0.20005678 9.25138987 -0.09863592 4.62573929 0 0 Z " fill="#388BC8" transform="translate(387,132)"/>
<path d="M0 0 C2.64 0 5.28 0 8 0 C-0.6634981 16.8878327 -0.6634981 16.8878327 -7 19 C-6.979375 18.071875 -6.95875 17.14375 -6.9375 16.1875 C-6.84230396 12.97713989 -6.84230396 12.97713989 -8 10 C-7.34 10 -6.68 10 -6 10 C-5.67 9.34 -5.34 8.68 -5 8 C-4.154375 7.38125 -3.30875 6.7625 -2.4375 6.125 C-1.2309375 5.073125 -1.2309375 5.073125 0 4 C0 2.68 0 1.36 0 0 Z " fill="#2EA4DE" transform="translate(304,336)"/>
<path d="M0 0 C1.34244113 0.01006425 2.68488969 0.01918393 4.02734375 0.02734375 C7.26842489 0.05066088 10.50911102 0.08338448 13.75 0.125 C13.75 0.455 13.75 0.785 13.75 1.125 C9.13 1.125 4.51 1.125 -0.25 1.125 C-0.58 1.785 -0.91 2.445 -1.25 3.125 C-2.19875 3.08375 -3.1475 3.0425 -4.125 3 C-7.35244856 2.77526182 -7.35244856 2.77526182 -9.25 5.125 C-10.24 4.795 -11.23 4.465 -12.25 4.125 C-12.25 3.795 -12.25 3.465 -12.25 3.125 C-24.92407647 4.35594017 -24.92407647 4.35594017 -37.22265625 7.52734375 C-39.93433111 8.32673923 -42.44642305 8.34633502 -45.25 8.125 C-41.91615901 5.90243934 -39.18063906 5.14692322 -35.3125 4.125 C-34.08660156 3.795 -32.86070312 3.465 -31.59765625 3.125 C-20.9879092 0.58640982 -10.90396124 -0.14246382 0 0 Z " fill="#2A61C1" transform="translate(240.25,10.875)"/>
<path d="M0 0 C2 2 2 2 2.3125 4.625 C1.98629748 8.14798721 1.11174826 10.74337459 -0.2109375 13.98828125 C-1.13307537 16.23626992 -1.13307537 16.23626992 -2 19.625 C-3.00045631 23.00154006 -4.33816318 25.90294048 -6 29 C-6.33 29 -6.66 29 -7 29 C-7.1875 26.1875 -7.1875 26.1875 -7 23 C-6.51015625 22.525625 -6.0203125 22.05125 -5.515625 21.5625 C-3.58621811 19.57342073 -3.64455018 18.53946182 -3.5625 15.8125 C-3.18212773 10.76843299 -1.47001811 7.3822902 1 3 C-1.31 3 -3.62 3 -6 3 C-6.33 3.66 -6.66 4.32 -7 5 C-7.66 5 -8.32 5 -9 5 C-9.103125 5.639375 -9.20625 6.27875 -9.3125 6.9375 C-9.539375 7.618125 -9.76625 8.29875 -10 9 C-10.99 9.33 -11.98 9.66 -13 10 C-13.33 7.69 -13.66 5.38 -14 3 C-12.88625 2.690625 -11.7725 2.38125 -10.625 2.0625 C-2.85714286 -0.21428571 -2.85714286 -0.21428571 0 0 Z " fill="#2485B8" transform="translate(279,346)"/>
<path d="M0 0 C5.0658242 1.44849687 9.14638218 3.65281766 13.5625 6.4375 C14.60108154 7.08924194 14.60108154 7.08924194 15.66064453 7.75415039 C23.26445992 12.64256617 31.93403192 18.40104788 37 26 C35.35 26.33 33.7 26.66 32 27 C31.979375 26.236875 31.95875 25.47375 31.9375 24.6875 C31.20339051 21.58610882 31.20339051 21.58610882 27.4375 20.1875 C26.303125 19.795625 25.16875 19.40375 24 19 C24.33 18.34 24.66 17.68 25 17 C24.360625 16.87625 23.72125 16.7525 23.0625 16.625 C22.0415625 16.315625 22.0415625 16.315625 21 16 C20.67 15.34 20.34 14.68 20 14 C19.175 13.835 18.35 13.67 17.5 13.5 C16.675 13.335 15.85 13.17 15 13 C14.67 12.34 14.34 11.68 14 11 C14.33 10.34 14.66 9.68 15 9 C14.01 9 13.02 9 12 9 C12 8.34 12 7.68 12 7 C11.484375 6.896875 10.96875 6.79375 10.4375 6.6875 C7.1138037 5.7500472 4.10001334 4.52076126 1 3 C0.67 2.01 0.34 1.02 0 0 Z " fill="#2E6FC0" transform="translate(307,26)"/>
<path d="M0 0 C0.99 1.32 1.98 2.64 3 4 C1 7 1 7 -1.125 7.6875 C-1.74375 7.790625 -2.3625 7.89375 -3 8 C-3.020625 9.093125 -3.04125 10.18625 -3.0625 11.3125 C-3.371875 12.529375 -3.68125 13.74625 -4 15 C-7.375 16.875 -7.375 16.875 -11 18 C-11.99 18.33 -12.98 18.66 -14 19 C-14.33 19.99 -14.66 20.98 -15 22 C-15.99 21.67 -16.98 21.34 -18 21 C-17.34 21 -16.68 21 -16 21 C-15.731875 20.401875 -15.46375 19.80375 -15.1875 19.1875 C-13.99427577 16.98945536 -12.75321129 15.75321129 -11 14 C-10.55914062 13.24203125 -10.11828125 12.4840625 -9.6640625 11.703125 C-7.93868496 8.90039904 -6.02573735 6.61843283 -3.8125 4.1875 C-3.09707031 3.39730469 -2.38164062 2.60710937 -1.64453125 1.79296875 C-1.10183594 1.20128906 -0.55914062 0.60960937 0 0 Z " fill="#3190D8" transform="translate(212,288)"/>
<path d="M0 0 C-0.6875 3.375 -0.6875 3.375 -2 7 C-4.625 8.4375 -4.625 8.4375 -7 9 C-7 8.01 -7 7.02 -7 6 C-7.804375 6.165 -8.60875 6.33 -9.4375 6.5 C-13.65887352 7.09247348 -17.74664545 7.08506709 -22 7 C-20.40170877 3.80341753 -17.20556258 3.15276962 -14 2 C-9.25637234 0.51305518 -5.01039505 -0.25051975 0 0 Z " fill="#1C66DC" transform="translate(209,17)"/>
<path d="M0 0 C3.47335794 2.75763569 4.77093723 6.63162199 6.375 10.625 C6.67736572 11.37048096 6.97973145 12.11596191 7.29125977 12.8840332 C9.41636856 18.24708201 11.27969576 23.66270573 12.9375 29.1875 C13.14874512 29.88117676 13.35999023 30.57485352 13.57763672 31.28955078 C14.72586876 35.29226621 15.21341968 38.84154984 15 43 C14.34 42.67 13.68 42.34 13 42 C12.3887511 39.00714425 12.04032136 36.0107169 11.66015625 32.98046875 C10.96482273 29.8411819 9.95922052 28.47259916 8 26 C7.77242794 24.08189266 7.54951728 22.16263422 7.3828125 20.23828125 C6.69316567 16.20595843 4.81091443 12.63867457 3 9 C2.34 9 1.68 9 1 9 C0 2.25 0 2.25 0 0 Z " fill="#3880BD" transform="translate(372,89)"/>
<path d="M0 0 C4.455 0.99 4.455 0.99 9 2 C8.75 4.375 8.75 4.375 8 7 C5.9375 8.3125 5.9375 8.3125 4 9 C4 9.66 4 10.32 4 11 C3.34 11 2.68 11 2 11 C2 11.99 2 12.98 2 14 C1.34 14 0.68 14 0 14 C-1.38740735 9.14407429 -0.89337974 4.91358857 0 0 Z " fill="#258EE5" transform="translate(225,216)"/>
<path d="M0 0 C1.875 0.625 1.875 0.625 4 2 C5.25 5.125 5.25 5.125 6 8 C6.66 7.67 7.32 7.34 8 7 C8.33 6.01 8.66 5.02 9 4 C9.66 4 10.32 4 11 4 C11.33 3.01 11.66 2.02 12 1 C12.33 1.66 12.66 2.32 13 3 C11.17064224 7.34472468 8.92611329 11.30210351 6 15 C3.15105714 16.1088371 2.04116684 15.74477555 -1 15 C-0.505 13.948125 -0.01 12.89625 0.5 11.8125 C1.81292826 8.73240764 2.4702974 6.3861413 2 3 C1.34 2.01 0.68 1.02 0 0 Z " fill="#2F627E" transform="translate(261,347)"/>
<path d="M0 0 C0.99 0 1.98 0 3 0 C1.69178536 7.06579664 -0.57758384 13.07245589 -3.625 19.5625 C-4.04523438 20.47580078 -4.46546875 21.38910156 -4.8984375 22.33007812 C-5.92451498 24.55713265 -6.95842164 26.78016413 -8 29 C-9.20899555 25.25941646 -8.52062756 23.55038147 -6.82421875 20.01171875 C-5.60638407 17.03927866 -5.13920817 13.98055021 -4.625 10.8203125 C-4.41875 10.21960938 -4.2125 9.61890625 -4 9 C-3.01 8.67 -2.02 8.34 -1 8 C-0.40267181 5.23735711 0 2.83967231 0 0 Z " fill="#3994CE" transform="translate(374,217)"/>
<path d="M0 0 C0.33 0.66 0.66 1.32 1 2 C0.35191436 3.34246312 -0.31822584 4.67432801 -1 6 C-1.165 6.845625 -1.33 7.69125 -1.5 8.5625 C-2 11 -2 11 -4 14 C-4.66 14 -5.32 14 -6 14 C-6.33 16.31 -6.66 18.62 -7 21 C-7.99 21 -8.98 21 -10 21 C-10.33 23.31 -10.66 25.62 -11 28 C-12.98 28.66 -14.96 29.32 -17 30 C-16.5875 29.3915625 -16.175 28.783125 -15.75 28.15625 C-11.54517425 21.7739252 -8.00188991 15.26596163 -4.66601562 8.39648438 C-3.24032092 5.46156942 -1.81348487 2.72022731 0 0 Z " fill="#388CCB" transform="translate(235,250)"/>
<path d="M0 0 C1.65 0 3.3 0 5 0 C5 2.97 5 5.94 5 9 C4.01 8.67 3.02 8.34 2 8 C2.32742187 8.54140625 2.65484375 9.0828125 2.9921875 9.640625 C4.21664767 12.50719067 4.19892146 14.6452987 4.125 17.75 C4.10695313 18.73484375 4.08890625 19.7196875 4.0703125 20.734375 C4.03550781 21.85585937 4.03550781 21.85585937 4 23 C2.12896758 19.42233549 1.02923588 15.91109635 0 12 C-0.226875 11.175 -0.45375 10.35 -0.6875 9.5 C-1.10000884 6.19992931 -0.57516406 3.259263 0 0 Z " fill="#2270DF" transform="translate(99,178)"/>
<path d="M0 0 C0.66 0.33 1.32 0.66 2 1 C2 1.66 2 2.32 2 3 C1.34 3 0.68 3 0 3 C0.33 3.99 0.66 4.98 1 6 C2.65 6 4.3 6 6 6 C5.51421457 9.12290635 5.0013988 11.99580359 4 15 C4.7589745 17.15579007 4.7589745 17.15579007 5.9375 19.375 C7.54066365 22.75211106 8.49144908 25.19126966 8 29 C7.33333333 27.66666667 6.66666667 26.33333333 6 25 C5.43023437 23.88109375 4.86046875 22.7621875 4.2734375 21.609375 C3.63968259 20.32338067 3.00689545 19.03690903 2.375 17.75 C1.88773437 16.80447266 1.88773437 16.80447266 1.390625 15.83984375 C-0.95669412 10.99726522 -1.40391936 7.37789773 -1 2 C-0.67 1.34 -0.34 0.68 0 0 Z " fill="#3387CF" transform="translate(257,204)"/>
<path d="M0 0 C-0.80824219 0.30292969 -1.61648438 0.60585937 -2.44921875 0.91796875 C-11.75523994 4.56628827 -16.35203115 8.22050328 -21 17 C-23.78637633 12.8204355 -22.79562512 10.85331323 -22 6 C-19.36 5.67 -16.72 5.34 -14 5 C-14 3.68 -14 2.36 -14 1 C-12.68 1 -11.36 1 -10 1 C-8.824375 0.649375 -7.64875 0.29875 -6.4375 -0.0625 C-3 -1 -3 -1 0 0 Z " fill="#2D78CF" transform="translate(304,100)"/>
<path d="M0 0 C9.66795999 1.38113714 18.10659106 5.14137477 27 9 C26.34 9.66 25.68 10.32 25 11 C22.69 10.34 20.38 9.68 18 9 C18 8.34 18 7.68 18 7 C16.63875 7.309375 16.63875 7.309375 15.25 7.625 C11.88972103 8.0127245 10.75924185 7.80411967 8 6 C8 5.01 8 4.02 8 3 C7.05125 2.87625 6.1025 2.7525 5.125 2.625 C2 2 2 2 0 0 Z " fill="#296AC5" transform="translate(280,16)"/>
<path d="M0 0 C0.33 0.99 0.66 1.98 1 3 C0.34 3.66 -0.32 4.32 -1 5 C-1.6425235 7.06874034 -1.6425235 7.06874034 -2 9 C-2.66 9 -3.32 9 -4 9 C-4.04898438 9.63808594 -4.09796875 10.27617187 -4.1484375 10.93359375 C-4.22320312 11.75988281 -4.29796875 12.58617187 -4.375 13.4375 C-4.44460937 14.26121094 -4.51421875 15.08492188 -4.5859375 15.93359375 C-4.72257813 16.61550781 -4.85921875 17.29742187 -5 18 C-5.66 18.33 -6.32 18.66 -7 19 C-7 18.34 -7 17.68 -7 17 C-7.99 17.33 -8.98 17.66 -10 18 C-9.67 15.36 -9.34 12.72 -9 10 C-7.68 9.67 -6.36 9.34 -5 9 C-5 8.34 -5 7.68 -5 7 C-5.66 7 -6.32 7 -7 7 C-6.67 6.34 -6.34 5.68 -6 5 C-5.34 5.33 -4.68 5.66 -4 6 C-3.34 4.68 -2.68 3.36 -2 2 C-1.34 2 -0.68 2 0 2 C0 1.34 0 0.68 0 0 Z " fill="#297198" transform="translate(244,355)"/>
<path d="M0 0 C1.85625 0.1546875 1.85625 0.1546875 3.75 0.3125 C3.09 2.9525 2.43 5.5925 1.75 8.3125 C1.42 7.3225 1.09 6.3325 0.75 5.3125 C-3.68090471 6.52092856 -6.23112756 7.82918565 -9.25 11.3125 C-8.66123496 4.98327577 -7.00352818 0.01239563 0 0 Z " fill="#2D6483" transform="translate(227.25,364.6875)"/>
<path d="M0 0 C2.79827632 1.11833382 5.39726245 2.48567997 8 4 C8 3.34 8 2.68 8 2 C10.76452033 0.61773984 13.0461363 0.90474613 16.125 0.9375 C17.22070312 0.94652344 18.31640625 0.95554687 19.4453125 0.96484375 C20.70988281 0.98224609 20.70988281 0.98224609 22 1 C20 3 20 3 17.3984375 3.1953125 C16.40070313 3.17210937 15.40296875 3.14890625 14.375 3.125 C12.87066406 3.09792969 12.87066406 3.09792969 11.3359375 3.0703125 C10.56507813 3.04710937 9.79421875 3.02390625 9 3 C9 3.66 9 4.32 9 5 C8.01 5.33 7.02 5.66 6 6 C5.443125 5.71125 4.88625 5.4225 4.3125 5.125 C-0.03450438 3.01024111 -4.38731502 2.49603594 -9 3.9375 C-9.66 4.288125 -10.32 4.63875 -11 5 C-11 4.34 -11 3.68 -11 3 C-10.34 3 -9.68 3 -9 3 C-9 2.34 -9 1.68 -9 1 C-5.87143524 -0.56428238 -3.47287869 -0.28007086 0 0 Z " fill="#32759F" transform="translate(241,345)"/>
<path d="M0 0 C0.33 0 0.66 0 1 0 C1.81054151 6.0211655 2.02942228 11.92956672 1.9375 18 C1.85973357 23.51113342 2.32431072 28.5116618 3.62109375 33.87109375 C4.20031298 37.12546984 3.69769222 39.79061578 3 43 C2.67 43 2.34 43 2 43 C-0.55903689 34.22471994 -0.22431307 25.48342183 -0.125 16.4375 C-0.11495088 14.8405004 -0.10582844 13.24349468 -0.09765625 11.64648438 C-0.07579391 7.76416994 -0.0413706 3.88215356 0 0 Z " fill="#2660C1" transform="translate(96,142)"/>
<path d="M0 0 C0.66 0.66 1.32 1.32 2 2 C-12.77844828 19.77155172 -12.77844828 19.77155172 -21 26 C-21.66 25.67 -22.32 25.34 -23 25 C-21.6875 23 -21.6875 23 -20 21 C-19.01 21 -18.02 21 -17 21 C-17 20.34 -17 19.68 -17 19 C-16.34 19 -15.68 19 -15 19 C-15 18.34 -15 17.68 -15 17 C-14.01 16.34 -13.02 15.68 -12 15 C-11.67 14.01 -11.34 13.02 -11 12 C-10.01 12 -9.02 12 -8 12 C-8 11.01 -8 10.02 -8 9 C-7.34 9 -6.68 9 -6 9 C-6 8.34 -6 7.68 -6 7 C-5.38125 6.54625 -4.7625 6.0925 -4.125 5.625 C-1.86557722 3.89720611 -1.07249699 2.59186772 0 0 Z " fill="#3B80BE" transform="translate(235,218)"/>
<path d="M0 0 C1.12992329 3.38976986 0.85631454 4.27572113 -0.14453125 7.59765625 C-0.40943359 8.48130859 -0.67433594 9.36496094 -0.94726562 10.27539062 C-1.23279297 11.19513672 -1.51832031 12.11488281 -1.8125 13.0625 C-2.08642578 13.98611328 -2.36035156 14.90972656 -2.64257812 15.86132812 C-4.73688616 22.73688616 -4.73688616 22.73688616 -7 25 C-7.33 22.03 -7.66 19.06 -8 16 C-7.34 16 -6.68 16 -6 16 C-5.896875 14.948125 -5.79375 13.89625 -5.6875 12.8125 C-5.01028065 9.05701087 -4.1012276 7.10981684 -2 4 C-1.31903578 2.67391178 -0.64669414 1.34313399 0 0 Z " fill="#3593D4" transform="translate(384,192)"/>
<path d="M0 0 C0.99 0.99 1.98 1.98 3 3 C2.01 6.3 1.02 9.6 0 13 C-1.32 12.67 -2.64 12.34 -4 12 C-3.125 6.25 -3.125 6.25 -2 4 C-2.99 3.67 -3.98 3.34 -5 3 C-5 2.34 -5 1.68 -5 1 C-2.6875 0.3125 -2.6875 0.3125 0 0 Z " fill="#E5ECF1" transform="translate(255,362)"/>
<path d="M0 0 C-1.89597697 2.00130902 -3.85073869 3.69122519 -6 5.4375 C-8.45779123 7.53686334 -10.22515168 9.33772752 -12 12 C-13 11 -13 11 -13.4375 8.25 C-13 5 -13 5 -10.4375 2.125 C-7.04650264 -0.40813168 -4.19220862 -0.41922086 0 0 Z " fill="#DFEBF3" transform="translate(261,348)"/>
<path d="M0 0 C2.31 0 4.62 0 7 0 C6.25 5.75 6.25 5.75 4 8 C3.67 7.34 3.34 6.68 3 6 C2.34 6 1.68 6 1 6 C-0.6446674 8.46326712 -0.6446674 8.46326712 -2 11 C-2.66 10.67 -3.32 10.34 -4 10 C-2.68 6.7 -1.36 3.4 0 0 Z " fill="#2C5973" transform="translate(258,365)"/>
<path d="M0 0 C0.66 0 1.32 0 2 0 C1.6875 1.9375 1.6875 1.9375 1 4 C0.01 4.33 -0.98 4.66 -2 5 C-3.68873879 6.64429829 -5.35305515 8.31384218 -7 10 C-8.66666667 11.33333333 -10.33333333 12.66666667 -12 14 C-15.29932007 17.13837762 -18.21917312 20.39522442 -21 24 C-21.66 23.67 -22.32 23.34 -23 23 C-21.38405168 20.95880212 -19.7143618 18.95927063 -18 17 C-17.34 17 -16.68 17 -16 17 C-15.73703125 16.4121875 -15.4740625 15.824375 -15.203125 15.21875 C-12.02936403 9.36584015 -6.4804326 5.52313524 -1 2 C-0.67 1.34 -0.34 0.68 0 0 Z " fill="#2B62B9" transform="translate(152,41)"/>
<path d="M0 0 C0.33 0.66 0.66 1.32 1 2 C1.66 2 2.32 2 3 2 C3 3.98 3 5.96 3 8 C3.99 8.33 4.98 8.66 6 9 C4.125 13.75 4.125 13.75 3 16 C2.01 16 1.02 16 0 16 C-0.19672365 14.27185839 -0.38196799 12.54240803 -0.5625 10.8125 C-0.71912109 9.36810547 -0.71912109 9.36810547 -0.87890625 7.89453125 C-0.99758751 5.05766623 -0.67765639 2.74576329 0 0 Z " fill="#2992E4" transform="translate(330,192)"/>
<path d="M0 0 C0.66 1.32 1.32 2.64 2 4 C1.01 4.495 1.01 4.495 0 5 C0 6.32 0 7.64 0 9 C0 11.66666667 0 14.33333333 0 17 C-2.55227651 13.92849245 -3.88776704 11.01474376 -5.1875 7.25 C-5.53167969 6.26515625 -5.87585938 5.2803125 -6.23046875 4.265625 C-6.48441406 3.51796875 -6.73835938 2.7703125 -7 2 C-4.69 2.33 -2.38 2.66 0 3 C0 2.01 0 1.02 0 0 Z " fill="#2776D8" transform="translate(118,224)"/>
<path d="M0 0 C0.33 0.66 0.66 1.32 1 2 C4.63 2 8.26 2 12 2 C12 2.33 12 2.66 12 3 C2.53149174 4.78831859 -6.40432207 5.23889655 -16 5 C-16 4.34 -16 3.68 -16 3 C-14.86111328 2.92652344 -14.86111328 2.92652344 -13.69921875 2.8515625 C-12.20841797 2.73941406 -12.20841797 2.73941406 -10.6875 2.625 C-9.70136719 2.55539063 -8.71523437 2.48578125 -7.69921875 2.4140625 C-4.64395569 1.94538249 -3.01651595 0 0 0 Z " fill="#2B71CA" transform="translate(226,134)"/>
<path d="M0 0 C0.66 0.33 1.32 0.66 2 1 C0.02 4.63 -1.96 8.26 -4 12 C-6.31 12 -8.62 12 -11 12 C-7.49102731 7.81576108 -3.91939465 3.80411834 0 0 Z " fill="#364F5F" transform="translate(237,350)"/>
<path d="M0 0 C1.32 0.66 2.64 1.32 4 2 C3.67 3.65 3.34 5.3 3 7 C2.01 7.33 1.02 7.66 0 8 C-0.66 7.67 -1.32 7.34 -2 7 C-2 7.66 -2 8.32 -2 9 C-2.99 9.33 -3.98 9.66 -5 10 C-5.66 9.34 -6.32 8.68 -7 8 C-6.34 7.01 -5.68 6.02 -5 5 C-4.01 5 -3.02 5 -2 5 C-2 4.34 -2 3.68 -2 3 C-1.34 3 -0.68 3 0 3 C0 2.01 0 1.02 0 0 Z " fill="#1F63DA" transform="translate(116,87)"/>
<path d="M0 0 C0.33 1.32 0.66 2.64 1 4 C0.34 3.67 -0.32 3.34 -1 3 C-1 2.34 -1 1.68 -1 1 C-5.62 1.33 -10.24 1.66 -15 2 C-15 2.66 -15 3.32 -15 4 C-18.35595828 3.40072174 -20.37801226 2.15377564 -23 0 C-15.72506783 -2.18768843 -7.38929527 -1.34350823 0 0 Z " fill="#257CB3" transform="translate(264,345)"/>
<path d="M0 0 C5.11365014 1.0681847 10.07227969 2.23107476 15 4 C15 4.99 15 5.98 15 7 C12 9 12 9 9 9 C9 8.34 9 7.68 9 7 C8.34 7 7.68 7 7 7 C7.33 5.68 7.66 4.36 8 3 C6.865625 2.87625 5.73125 2.7525 4.5625 2.625 C3.386875 2.41875 2.21125 2.2125 1 2 C0.67 1.34 0.34 0.68 0 0 Z " fill="#206ADD" transform="translate(273,15)"/>
<path d="M0 0 C0.66 0.33 1.32 0.66 2 1 C1.18015625 1.66386719 0.3603125 2.32773437 -0.484375 3.01171875 C-1.57313679 3.90337712 -2.66166615 4.79531935 -3.75 5.6875 C-4.55824219 6.34008789 -4.55824219 6.34008789 -5.3828125 7.00585938 C-8.00782024 9.16668892 -10.09714531 11.12487651 -12.203125 13.83203125 C-12.79609375 14.54746094 -13.3890625 15.26289063 -14 16 C-14.99 16 -15.98 16 -17 16 C-17 15.34 -17 14.68 -17 14 C-15.948125 13.1646875 -15.948125 13.1646875 -14.875 12.3125 C-12.49560883 10.39864189 -10.93631077 8.78099948 -9.0625 6.4375 C-6.41529222 3.25674647 -3.95433485 1.43793995 0 0 Z " fill="#346583" transform="translate(235,347)"/>
<path d="M0 0 C0.66 0.33 1.32 0.66 2 1 C1.814375 1.94875 1.62875 2.8975 1.4375 3.875 C0.71313368 6.89868793 0.71313368 6.89868793 2 9 C1.34 9.66 0.68 10.32 0 11 C0 10.34 0 9.68 0 9 C-0.99 9 -1.98 9 -3 9 C-4.5625 7.625 -4.5625 7.625 -6 6 C-6.66 5.34 -7.32 4.68 -8 4 C-7.67 3.34 -7.34 2.68 -7 2 C-4.69 2 -2.38 2 0 2 C0 1.34 0 0.68 0 0 Z " fill="#2996E2" transform="translate(174,323)"/>
<path d="M0 0 C0.66 0 1.32 0 2 0 C3.32 2.31 4.64 4.62 6 7 C6.99 6.67 7.98 6.34 9 6 C9.144375 6.61875 9.28875 7.2375 9.4375 7.875 C9.93152225 10.03258322 9.93152225 10.03258322 11 12 C10.72057545 13.67654729 10.39171753 15.34608154 10 17 C7.40669218 13.90797914 5.03684256 10.69688268 2.75 7.375 C1.96882813 6.24191406 1.96882813 6.24191406 1.171875 5.0859375 C0 3 0 3 0 0 Z " fill="#358AD0" transform="translate(317,179)"/>
<path d="M0 0 C0 1.98 0 3.96 0 6 C-0.99 6 -1.98 6 -3 6 C-2.67 8.31 -2.34 10.62 -2 13 C-2.66 13 -3.32 13 -4 13 C-4 12.34 -4 11.68 -4 11 C-4.66 11 -5.32 11 -6 11 C-5.42415568 8.61435923 -4.77772405 6.33317216 -4 4 C-4.66 3.67 -5.32 3.34 -6 3 C-3.375 0 -3.375 0 0 0 Z " fill="#28A3EC" transform="translate(342,280)"/>
<path d="M0 0 C0.66 0.33 1.32 0.66 2 1 C0.23955691 3.17589571 -1.53227897 5.3403876 -3.3125 7.5 C-3.81201172 8.12003906 -4.31152344 8.74007813 -4.82617188 9.37890625 C-6.15152178 10.97634786 -7.57104134 12.49452691 -9 14 C-9.99 14 -10.98 14 -12 14 C-12.33 13.01 -12.66 12.02 -13 11 C-11.35 11 -9.7 11 -8 11 C-8.33 9.68 -8.66 8.36 -9 7 C-8.01 6.34 -7.02 5.68 -6 5 C-5.34 5.33 -4.68 5.66 -4 6 C-4 5.01 -4 4.02 -4 3 C-2 1.3125 -2 1.3125 0 0 Z " fill="#37A0D1" transform="translate(253,411)"/>
<path d="M0 0 C0 0.66 0 1.32 0 2 C-0.969375 2.12375 -1.93875 2.2475 -2.9375 2.375 C-3.948125 2.58125 -4.95875 2.7875 -6 3 C-6.33 3.66 -6.66 4.32 -7 5 C-7.66 5 -8.32 5 -9 5 C-9.103125 5.639375 -9.20625 6.27875 -9.3125 6.9375 C-9.539375 7.618125 -9.76625 8.29875 -10 9 C-10.99 9.33 -11.98 9.66 -13 10 C-13.33 7.69 -13.66 5.38 -14 3 C-12.88625 2.690625 -11.7725 2.38125 -10.625 2.0625 C-3.29261364 -0.08664773 -3.29261364 -0.08664773 0 0 Z " fill="#2B759F" transform="translate(279,346)"/>
<path d="M0 0 C0.66 0 1.32 0 2 0 C2.33 0.99 2.66 1.98 3 3 C1.68 4.32 0.36 5.64 -1 7 C1.97 7.495 1.97 7.495 5 8 C5.33 7.34 5.66 6.68 6 6 C5.67 7.32 5.34 8.64 5 10 C3.741875 9.87625 2.48375 9.7525 1.1875 9.625 C0.47980469 9.55539062 -0.22789062 9.48578125 -0.95703125 9.4140625 C-3 9 -3 9 -6 7 C-5.04882866 5.8274869 -4.08882991 4.66212985 -3.125 3.5 C-2.59132812 2.8503125 -2.05765625 2.200625 -1.5078125 1.53125 C-0.76144531 0.77328125 -0.76144531 0.77328125 0 0 Z " fill="#D2DCE5" transform="translate(228,354)"/>
<path d="M0 0 C1.32 0 2.64 0 4 0 C4.33 1.98 4.66 3.96 5 6 C5.33 6 5.66 6 6 6 C6.125 8.875 6.125 8.875 6 12 C5.34 12.66 4.68 13.32 4 14 C-0.59225513 4.58997722 -0.59225513 4.58997722 0 0 Z " fill="#2A8DE4" transform="translate(260,214)"/>
<path d="M0 0 C2.0625 0.4375 2.0625 0.4375 4 1 C2.68 1.33 1.36 1.66 0 2 C0 3.32 0 4.64 0 6 C1.01320312 6.18175781 1.01320312 6.18175781 2.046875 6.3671875 C3.38492188 6.61855469 3.38492188 6.61855469 4.75 6.875 C5.63171875 7.03742188 6.5134375 7.19984375 7.421875 7.3671875 C9.86947744 7.96796264 11.80599857 8.77997117 14 10 C11.70800823 9.85936865 9.41640814 9.71234057 7.125 9.5625 C5.84882813 9.48128906 4.57265625 9.40007812 3.2578125 9.31640625 C0 9 0 9 -2 8 C-1.125 1.125 -1.125 1.125 0 0 Z " fill="#3276C5" transform="translate(205,139)"/>
<path d="M0 0 C-1.134375 0.45375 -2.26875 0.9075 -3.4375 1.375 C-7.04721692 2.57095806 -7.04721692 2.57095806 -8 5 C-9.66072849 5.68132451 -11.327767 6.34742127 -13 7 C-13.66 7.66 -14.32 8.32 -15 9 C-15 8.34 -15 7.68 -15 7 C-15.598125 7.350625 -16.19625 7.70125 -16.8125 8.0625 C-19 9 -19 9 -22 8 C-19.7941576 6.86988348 -17.58554973 5.74584212 -15.375 4.625 C-14.75753906 4.30789062 -14.14007813 3.99078125 -13.50390625 3.6640625 C-3.14242474 -1.57121237 -3.14242474 -1.57121237 0 0 Z " fill="#2264BD" transform="translate(195,20)"/>
<path d="M0 0 C1 2 1 2 0.25 5.0625 C-0.1625 6.031875 -0.575 7.00125 -1 8 C-1.99 8.33 -2.98 8.66 -4 9 C-3.67 9.99 -3.34 10.98 -3 12 C-3.99 13.485 -3.99 13.485 -5 15 C-5.99 14.67 -6.98 14.34 -8 14 C-6.58036591 8.32146365 -3.60636039 4.46825784 0 0 Z " fill="#297FD6" transform="translate(267,190)"/>
<path d="M0 0 C2.3125 0.5625 2.3125 0.5625 5 2 C5.495 3.175625 5.99 4.35125 6.5 5.5625 C6.995 6.696875 7.49 7.83125 8 9 C10.57732914 10.05167527 10.57732914 10.05167527 13 10 C12.01 10.495 12.01 10.495 11 11 C11 11.66 11 12.32 11 13 C11.66 13.33 12.32 13.66 13 14 C12.34 14.66 11.68 15.32 11 16 C9.34908416 13.89965153 7.70418762 11.79504167 6.0625 9.6875 C5.59392578 9.09259766 5.12535156 8.49769531 4.64257812 7.88476562 C2.61444041 5.27299116 1.05369199 3.16107597 0 0 Z " fill="#3896CF" transform="translate(189,358)"/>
<path d="M0 0 C0 4.0744433 -2.09169249 6.11745033 -4.5 9.1875 C-4.92925781 9.74630859 -5.35851562 10.30511719 -5.80078125 10.88085938 C-6.86078055 12.25885847 -7.92956188 13.63009407 -9 15 C-10.04449911 11.86650268 -9.93423645 11.01031744 -9 8 C-8.34 8 -7.68 8 -7 8 C-7 7.34 -7 6.68 -7 6 C-5.46875 4.4921875 -5.46875 4.4921875 -3.5 2.875 C-2.8503125 2.33617187 -2.200625 1.79734375 -1.53125 1.2421875 C-0.77328125 0.62730469 -0.77328125 0.62730469 0 0 Z " fill="#359FD0" transform="translate(298,354)"/>
<path d="M0 0 C0.99 0 1.98 0 3 0 C2.34215037 3.29680965 1.10579427 5.84117922 -0.5625 8.75 C-1.01753906 9.54921875 -1.47257812 10.3484375 -1.94140625 11.171875 C-2.29074219 11.77515625 -2.64007813 12.3784375 -3 13 C-4.65 13 -6.3 13 -8 13 C-6.625 11.5 -6.625 11.5 -5 10 C-4.34 10 -3.68 10 -3 10 C-2.86722656 9.36191406 -2.73445312 8.72382813 -2.59765625 8.06640625 C-2.42105469 7.24011719 -2.24445313 6.41382813 -2.0625 5.5625 C-1.88847656 4.73878906 -1.71445312 3.91507812 -1.53515625 3.06640625 C-1 1 -1 1 0 0 Z " fill="#2F5366" transform="translate(258,350)"/>
<path d="M0 0 C0.33 0.66 0.66 1.32 1 2 C1.66 2.33 2.32 2.66 3 3 C0.36 7.29 -2.28 11.58 -5 16 C-6 13 -6 13 -6 9 C-5.34 9 -4.68 9 -4 9 C-4 8.34 -4 7.68 -4 7 C-3.01 7 -2.02 7 -1 7 C-0.67 4.69 -0.34 2.38 0 0 Z " fill="#379ED3" transform="translate(337,291)"/>
<path d="M0 0 C1.32 0.33 2.64 0.66 4 1 C5.7479503 6.24385089 6.19392201 10.47322267 6 16 C3.19821938 12.7665725 2.25875825 9.89551231 1.3125 5.75 C1.06113281 4.67234375 0.80976562 3.5946875 0.55078125 2.484375 C0.36902344 1.66453125 0.18726562 0.8446875 0 0 Z " fill="#2E72C5" transform="translate(103,203)"/>
<path d="M0 0 C18.26922531 3.36851226 18.26922531 3.36851226 25 7 C24.01 7.495 24.01 7.495 23 8 C22.29875 7.71125 21.5975 7.4225 20.875 7.125 C18.31699241 6.12404051 16.44022153 5.73159232 13.75 5.4375 C10 5 10 5 9 4 C7.865625 3.87625 6.73125 3.7525 5.5625 3.625 C4.386875 3.41875 3.21125 3.2125 2 3 C1.34 2.01 0.68 1.02 0 0 Z " fill="#367AC1" transform="translate(232,152)"/>
<path d="M0 0 C-1.423125 0.8353125 -1.423125 0.8353125 -2.875 1.6875 C-6.08878787 4.06570302 -6.95565118 5.24034426 -8 9 C-9.98 7.35 -11.96 5.7 -14 4 C-12.8125 2.4375 -12.8125 2.4375 -11 1 C-8.3125 1.3125 -8.3125 1.3125 -6 2 C-6 1.34 -6 0.68 -6 0 C-3.50907189 -1.24546405 -2.58919267 -0.7767578 0 0 Z " fill="#346785" transform="translate(256,348)"/>
<path d="M0 0 C0.99 0.33 1.98 0.66 3 1 C3.125 4.375 3.125 4.375 3 8 C2.34 8.66 1.68 9.32 1 10 C0.01 9.67 -0.98 9.34 -2 9 C-2 6.36 -2 3.72 -2 1 C-1.34 0.67 -0.68 0.34 0 0 Z " fill="#2C9CE5" transform="translate(362,240)"/>
<path d="M0 0 C3.80097811 0.54299687 5.57457897 2.07276772 8 5 C8.75 7.25 8.75 7.25 9 9 C8.01 9 7.02 9 6 9 C6 8.01 6 7.02 6 6 C4.35 6.33 2.7 6.66 1 7 C0.67 4.69 0.34 2.38 0 0 Z " fill="#289DE2" transform="translate(200,369)"/>
<path d="M0 0 C0.99 0.33 1.98 0.66 3 1 C2.57316368 2.27445454 2.13302798 3.54445882 1.6875 4.8125 C1.44386719 5.52019531 1.20023438 6.22789062 0.94921875 6.95703125 C-0.06724258 9.14472373 -1.20820594 10.40896718 -3 12 C-3.33 11.34 -3.66 10.68 -4 10 C-3.34 10 -2.68 10 -2 10 C-2.185625 9.071875 -2.37125 8.14375 -2.5625 7.1875 C-3 4 -3 4 -2 1 C-1.34 0.67 -0.68 0.34 0 0 Z " fill="#2485BC" transform="translate(241,366)"/>
<path d="M0 0 C0.66 0 1.32 0 2 0 C0.65072455 4.53847198 -1.19159348 8.31932246 -3.625 12.375 C-4.25664062 13.43460937 -4.88828125 14.49421875 -5.5390625 15.5859375 C-6.02117187 16.38257813 -6.50328125 17.17921875 -7 18 C-7.33 17.34 -7.66 16.68 -8 16 C-7.10333658 13.75689987 -6.10853317 11.55245679 -5.0625 9.375 C-4.49660156 8.18648438 -3.93070312 6.99796875 -3.34765625 5.7734375 C-2.90292969 4.85820312 -2.45820313 3.94296875 -2 3 C-1.34 3 -0.68 3 0 3 C0 2.01 0 1.02 0 0 Z " fill="#3B98CE" transform="translate(355,262)"/>
<path d="M0 0 C2.86724686 0.57344937 3.8614515 0.8614515 6 3 C5.625 5.125 5.625 5.125 5 7 C3.02 7.33 1.04 7.66 -1 8 C-1 6.68 -1 5.36 -1 4 C-0.34 4 0.32 4 1 4 C0.67 2.68 0.34 1.36 0 0 Z " fill="#258FE0" transform="translate(258,203)"/>
<path d="M0 0 C0.66 0.99 1.32 1.98 2 3 C1.34 3 0.68 3 0 3 C0.33 3.99 0.66 4.98 1 6 C-0.28965176 7.37562854 -1.62689293 8.70766393 -3 10 C-3.66 10 -4.32 10 -5 10 C-5.3125 7.8125 -5.3125 7.8125 -5 5 C-2.5 2.1875 -2.5 2.1875 0 0 Z " fill="#2A5B73" transform="translate(256,351)"/>
<path d="M0 0 C3.56311466 1.78155733 5.35645475 3.16763009 8 6 C6.88625 5.938125 5.7725 5.87625 4.625 5.8125 C2.830625 5.9053125 2.830625 5.9053125 1 6 C0.01 7.485 0.01 7.485 -1 9 C-1.66 9 -2.32 9 -3 9 C-2.01 6.03 -1.02 3.06 0 0 Z " fill="#3786C8" transform="translate(245,224)"/>
<path d="M0 0 C3.57846202 1.9343038 5.66932504 3.69194522 8 7 C6.35333797 6.8864371 4.70763918 6.75882619 3.0625 6.625 C1.68771484 6.52058594 1.68771484 6.52058594 0.28515625 6.4140625 C-0.84599609 6.20910156 -0.84599609 6.20910156 -2 6 C-2.33 5.34 -2.66 4.68 -3 4 C-2.34 3.67 -1.68 3.34 -1 3 C-0.67 2.01 -0.34 1.02 0 0 Z " fill="#348ED3" transform="translate(317,201)"/>
<path d="M0 0 C1.4540625 0.0309375 1.4540625 0.0309375 2.9375 0.0625 C2.6075 0.7225 2.2775 1.3825 1.9375 2.0625 C0.6175 2.0625 -0.7025 2.0625 -2.0625 2.0625 C-2.7225 4.3725 -3.3825 6.6825 -4.0625 9.0625 C-5.0525 9.0625 -6.0425 9.0625 -7.0625 9.0625 C-7.7225 7.0825 -8.3825 5.1025 -9.0625 3.0625 C-8.258125 2.753125 -7.45375 2.44375 -6.625 2.125 C-1.57765152 0.03219697 -1.57765152 0.03219697 0 0 Z " fill="#2376DF" transform="translate(207.0625,137.9375)"/>
<path d="M0 0 C0.99 0.33 1.98 0.66 3 1 C2.01 2.485 2.01 2.485 1 4 C0.34 4 -0.32 4 -1 4 C-0.34 5.98 0.32 7.96 1 10 C-0.9375 10.5625 -0.9375 10.5625 -3 11 C-4 10 -4 10 -4.1875 7.625 C-4 5 -4 5 -2 2 C-1.34 2 -0.68 2 0 2 C0 1.34 0 0.68 0 0 Z " fill="#1C66DC" transform="translate(127,69)"/>
<path d="M0 0 C0.66 0 1.32 0 2 0 C2 0.66 2 1.32 2 2 C2.804375 2.226875 3.60875 2.45375 4.4375 2.6875 C7 4 7 4 7.875 6.4375 C8 9 8 9 7 12 C6.0165504 10.56542672 5.03839079 9.12722594 4.0625 7.6875 C3.51722656 6.88699219 2.97195313 6.08648437 2.41015625 5.26171875 C1 3 1 3 0 0 Z " fill="#3287D0" transform="translate(309,167)"/>
<path d="M0 0 C0.33 0 0.66 0 1 0 C1.62621031 6.88831341 -0.64193933 12.58902255 -3 19 C-3.33 19 -3.66 19 -4 19 C-4 16.69 -4 14.38 -4 12 C-3.34 12 -2.68 12 -2 12 C-2.061875 10.700625 -2.061875 10.700625 -2.125 9.375 C-1.99542279 5.87641532 -1.23980344 3.25448403 0 0 Z " fill="#337BC2" transform="translate(257,160)"/>
<path d="M0 0 C3.09011944 2.58265114 4.21627918 5.48956659 5.6875 9.1875 C6.12449219 10.27417969 6.56148438 11.36085938 7.01171875 12.48046875 C7.33785156 13.31191406 7.66398437 14.14335938 8 15 C7.01 14.67 6.02 14.34 5 14 C3.8125 11.4375 3.8125 11.4375 3 9 C2.34 9 1.68 9 1 9 C0 2.25 0 2.25 0 0 Z " fill="#2C7AC6" transform="translate(372,89)"/>
<path d="M0 0 C0.99 0 1.98 0 3 0 C3 3.80345877 1.86213669 4.77701015 -0.5 7.6875 C-1.47453125 8.89986328 -1.47453125 8.89986328 -2.46875 10.13671875 C-2.9740625 10.75160156 -3.479375 11.36648438 -4 12 C-4.33 11.34 -4.66 10.68 -5 10 C-4.00390625 7.6171875 -4.00390625 7.6171875 -2.5625 4.875 C-1.85287109 3.50988281 -1.85287109 3.50988281 -1.12890625 2.1171875 C-0.75636719 1.41851562 -0.38382812 0.71984375 0 0 Z " fill="#359FCD" transform="translate(273,383)"/>
<path d="M0 0 C0.99 0.33 1.98 0.66 3 1 C3.33 3.31 3.66 5.62 4 8 C2.125 7.875 2.125 7.875 0 7 C-1.25 3.9375 -1.25 3.9375 -2 1 C-1.34 0.67 -0.68 0.34 0 0 Z " fill="#259CE8" transform="translate(196,360)"/>
<path d="M0 0 C1.65 0.99 3.3 1.98 5 3 C4.67 4.32 4.34 5.64 4 7 C0.37 7 -3.26 7 -7 7 C-7 6.67 -7 6.34 -7 6 C-5.02 6 -3.04 6 -1 6 C-0.67 4.02 -0.34 2.04 0 0 Z " fill="#2497E0" transform="translate(265,232)"/>
<path d="M0 0 C0 0.66 0 1.32 0 2 C0.66 2.33 1.32 2.66 2 3 C1.6875 4.9375 1.6875 4.9375 1 7 C0.01 7.33 -0.98 7.66 -2 8 C-2.66 7.67 -3.32 7.34 -4 7 C-3.67 5.68 -3.34 4.36 -3 3 C-3.66 2.67 -4.32 2.34 -5 2 C-2 0 -2 0 0 0 Z " fill="#2692E4" transform="translate(246,232)"/>
<path d="M0 0 C4.18659858 3.82774727 7.37820862 7.94607874 10 13 C10 13.66 10 14.32 10 15 C9.34 15 8.68 15 8 15 C7.731875 14.401875 7.46375 13.80375 7.1875 13.1875 C6.11977597 10.95732387 6.11977597 10.95732387 4.375 9.4375 C3 8 3 8 3 5 C2.34 5 1.68 5 1 5 C0.67 3.35 0.34 1.7 0 0 Z " fill="#3578C0" transform="translate(360,70)"/>
<path d="M0 0 C3.74786772 0.69727772 5.23112855 2.69271834 7.6875 5.5 C6.924375 5.17 6.16125 4.84 5.375 4.5 C2.69680865 3.32563314 2.69680865 3.32563314 -0.3125 3.5 C-0.6425 4.16 -0.9725 4.82 -1.3125 5.5 C-2.95613134 6.22159424 -4.62300386 6.89351421 -6.3125 7.5 C-3.0055281 0.64984391 -3.0055281 0.64984391 0 0 Z " fill="#3E84C3" transform="translate(282.3125,170.5)"/>
<path d="M0 0 C-0.80824219 0.32613281 -1.61648438 0.65226562 -2.44921875 0.98828125 C-3.51785156 1.42527344 -4.58648437 1.86226563 -5.6875 2.3125 C-6.74324219 2.74175781 -7.79898437 3.17101562 -8.88671875 3.61328125 C-11.7537809 4.89032901 -14.35090386 6.32404122 -17 8 C-16.67 7.01 -16.34 6.02 -16 5 C-15.34 5 -14.68 5 -14 5 C-14 3.68 -14 2.36 -14 1 C-12.68 1 -11.36 1 -10 1 C-8.824375 0.649375 -7.64875 0.29875 -6.4375 -0.0625 C-3 -1 -3 -1 0 0 Z " fill="#3074C1" transform="translate(304,100)"/>
<path d="M0 0 C2.33944736 0.28730055 4.6739143 0.61936779 7 1 C6.67 2.65 6.34 4.3 6 6 C4.68 6 3.36 6 2 6 C2.33 4.68 2.66 3.36 3 2 C1.68 1.67 0.36 1.34 -1 1 C-0.67 0.67 -0.34 0.34 0 0 Z " fill="#3188D5" transform="translate(227,217)"/>
<path d="M0 0 C0.66 0 1.32 0 2 0 C2.66 0.66 3.32 1.32 4 2 C4.33 2 4.66 2 5 2 C5.26218749 5.14624993 5.24754367 6.61837017 3.5 9.3125 C2.7575 10.1478125 2.7575 10.1478125 2 11 C0.98617037 7.3791799 0.50102309 3.72188582 0 0 Z " fill="#2273E1" transform="translate(101,186)"/>
<path d="M0 0 C2.5 2.25 2.5 2.25 5 5 C5 6.32 5 7.64 5 9 C3.35 9 1.7 9 0 9 C0 6.03 0 3.06 0 0 Z " fill="#2E79CB" transform="translate(354,62)"/>
<path d="M0 0 C2.64 0 5.28 0 8 0 C7.01 1.485 7.01 1.485 6 3 C5.01 3 4.02 3 3 3 C2.67 4.32 2.34 5.64 2 7 C1.34 6.67 0.68 6.34 0 6 C0 4.02 0 2.04 0 0 Z " fill="#26A0E1" transform="translate(280,368)"/>
<path d="M0 0 C2.18785263 0.98076152 3.75512761 1.70848526 5.3125 3.5625 C7.91350862 5.77817401 10.6843889 5.6872065 14 6 C14 6.33 14 6.66 14 7 C9.33770246 8.11007084 6.38744919 7.99429508 2 6 C0 3 0 3 0 0 Z " fill="#3C80BD" transform="translate(126,258)"/>
<path d="M0 0 C1.32 0 2.64 0 4 0 C5.75 2 5.75 2 7 4 C6.67 4.66 6.34 5.32 6 6 C3.4375 6.625 3.4375 6.625 1 7 C0.67 4.69 0.34 2.38 0 0 Z " fill="#2B99E8" transform="translate(376,192)"/>
<path d="M0 0 C1.98 0 3.96 0 6 0 C6.33 0.66 6.66 1.32 7 2 C3.01939223 3.17076699 -0.91621717 4.25749403 -5 5 C-5.33 4.34 -5.66 3.68 -6 3 C-5.34 2.34 -4.68 1.68 -4 1 C-3.01 1.33 -2.02 1.66 -1 2 C-0.67 1.34 -0.34 0.68 0 0 Z " fill="#2F85B7" transform="translate(220,373)"/>
<path d="M0 0 C0.66 0 1.32 0 2 0 C2 0.66 2 1.32 2 2 C2.66 2 3.32 2 4 2 C4 3.32 4 4.64 4 6 C3.34 6 2.68 6 2 6 C1.67 6.99 1.34 7.98 1 9 C1 8.34 1 7.68 1 7 C0.34 7 -0.32 7 -1 7 C-1.04254356 5.00045254 -1.04080783 2.99958364 -1 1 C-0.67 0.67 -0.34 0.34 0 0 Z " fill="#29A1EA" transform="translate(353,256)"/>
<path d="M0 0 C2.27203802 0.2821289 4.54261684 0.57602856 6.8125 0.875 C8.70935547 1.11863281 8.70935547 1.11863281 10.64453125 1.3671875 C14 2 14 2 17 4 C11.72 3.67 6.44 3.34 1 3 C0.67 2.01 0.34 1.02 0 0 Z " fill="#2967BE" transform="translate(262,12)"/>
<path d="M0 0 C-3.74235319 2.44989101 -7.44225419 2.23086143 -11.75 2.125 C-12.44738281 2.11597656 -13.14476562 2.10695313 -13.86328125 2.09765625 C-15.57566958 2.07419888 -17.28788004 2.03833104 -19 2 C-19 1.67 -19 1.34 -19 1 C-12.33928512 -1.13645572 -6.89836454 -0.93838047 0 0 Z " fill="#3D82CA" transform="translate(160,264)"/>
<path d="M0 0 C1.5027237 0.97498145 3.00211963 1.95509389 4.5 2.9375 C5.3353125 3.48277344 6.170625 4.02804688 7.03125 4.58984375 C7.6809375 5.05519531 8.330625 5.52054688 9 6 C9 6.33 9 6.66 9 7 C7.35 7 5.7 7 4 7 C4 6.34 4 5.68 4 5 C2.02 5.99 2.02 5.99 0 7 C0 4.69 0 2.38 0 0 Z " fill="#3A8AC9" transform="translate(254,231)"/>
<path d="M0 0 C0.99 0.33 1.98 0.66 3 1 C3 1.66 3 2.32 3 3 C3.61875 3.268125 4.2375 3.53625 4.875 3.8125 C7 5 7 5 9 8 C6.525 7.01 6.525 7.01 4 6 C4 5.34 4 4.68 4 4 C2.35 4 0.7 4 -1 4 C-1 1 -1 1 0 0 Z " fill="#3388CD" transform="translate(308,193)"/>
<path d="M0 0 C0.928125 0.2784375 0.928125 0.2784375 1.875 0.5625 C4.04160178 1.23686176 4.04160178 1.23686176 6 0 C4.84414715 3.91211733 3.64465038 6.8745041 1 10 C0.34 9.67 -0.32 9.34 -1 9 C-0.67 8.67 -0.34 8.34 0 8 C0.07148199 6.64756083 0.08399454 5.29165633 0.0625 3.9375 C0.041875 2.638125 0.02125 1.33875 0 0 Z " fill="#317AC4" transform="translate(273,123)"/>
<path d="M0 0 C0.99 0 1.98 0 3 0 C2.67 1.65 2.34 3.3 2 5 C0.35 5.33 -1.3 5.66 -3 6 C-2.42655063 3.13275314 -2.1385485 2.1385485 0 0 Z " fill="#22A8EC" transform="translate(302,342)"/>
<path d="M0 0 C0.99 0.33 1.98 0.66 3 1 C3.125 3.375 3.125 3.375 3 6 C2.34 6.66 1.68 7.32 1 8 C0.01 7.67 -0.98 7.34 -2 7 C-1.34 4.69 -0.68 2.38 0 0 Z " fill="#2693E7" transform="translate(229,264)"/>
<path d="M0 0 C0.66 0 1.32 0 2 0 C2.625 1.8125 2.625 1.8125 3 4 C1 7 1 7 -1 7.8125 C-1.66 7.874375 -2.32 7.93625 -3 8 C-3.66 7.34 -4.32 6.68 -5 6 C-3.68 5.67 -2.36 5.34 -1 5 C-0.67 3.35 -0.34 1.7 0 0 Z " fill="#1F65DB" transform="translate(154,40)"/>
<path d="M0 0 C0.99 0.66 1.98 1.32 3 2 C2.67 4.31 2.34 6.62 2 9 C1.67 8.34 1.34 7.68 1 7 C0.01 7.33 -0.98 7.66 -2 8 C-1.125 1.125 -1.125 1.125 0 0 Z " fill="#D2E5EF" transform="translate(261,348)"/>
<path d="M0 0 C0.99 0.33 1.98 0.66 3 1 C3 1.66 3 2.32 3 3 C3.99 3 4.98 3 6 3 C6 3.66 6 4.32 6 5 C6.66 5.33 7.32 5.66 8 6 C8 7.65 8 9.3 8 11 C4.32966073 7.72291137 2.30718811 4.28477792 0 0 Z " fill="#3990CF" transform="translate(168,329)"/>
<path d="M0 0 C0.66 0.33 1.32 0.66 2 1 C1.01 2.485 1.01 2.485 0 4 C-0.66 4 -1.32 4 -2 4 C-1.34 2.68 -0.68 1.36 0 0 Z M-6 2 C-5.01 2 -4.02 2 -3 2 C-2.67 2.99 -2.34 3.98 -2 5 C-3.98 5.99 -3.98 5.99 -6 7 C-6.5625 5.0625 -6.5625 5.0625 -7 3 C-6.67 2.67 -6.34 2.34 -6 2 Z " fill="#1D67DE" transform="translate(183,25)"/>
<path d="M0 0 C2 1.3125 2 1.3125 4 3 C4 3.99 4 4.98 4 6 C2.35 6 0.7 6 -1 6 C-1.33 4.35 -1.66 2.7 -2 1 C-1.34 0.67 -0.68 0.34 0 0 Z " fill="#24ADED" transform="translate(241,416)"/>
<path d="M0 0 C1.32 0 2.64 0 4 0 C4.33 1.98 4.66 3.96 5 6 C5.66 6 6.32 6 7 6 C6.67 6.99 6.34 7.98 6 9 C4.99406757 7.8803014 3.9954151 6.7540588 3 5.625 C2.443125 4.99851562 1.88625 4.37203125 1.3125 3.7265625 C0 2 0 2 0 0 Z " fill="#3796CE" transform="translate(202,375)"/>
<path d="M0 0 C0 1.65 0 3.3 0 5 C0.99 5.33 1.98 5.66 3 6 C2 7 2 7 -0.5625 7.0625 C-1.7690625 7.0315625 -1.7690625 7.0315625 -3 7 C-3 5.02 -3 3.04 -3 1 C-1 0 -1 0 0 0 Z " fill="#E3F1F5" transform="translate(233,368)"/>
<path d="M0 0 C0.33 0 0.66 0 1 0 C1.41386916 5.38029909 0.23709068 10.12560517 -2 15 C-2.99 15.495 -2.99 15.495 -4 16 C-2.84941444 10.60204011 -1.57578241 5.29012667 0 0 Z " fill="#258DC7" transform="translate(281,349)"/>
<path d="M0 0 C0.99 0 1.98 0 3 0 C1.7508258 3.45925163 0.32472205 6.14693203 -2 9 C-2.33 6.69 -2.66 4.38 -3 2 C-2.01 2 -1.02 2 0 2 C0 1.34 0 0.68 0 0 Z " fill="#3A9BD4" transform="translate(342,284)"/>
<path d="M0 0 C1.37562854 1.28965176 2.70766393 2.62689293 4 4 C4 4.66 4 5.32 4 6 C1.35261084 7.4606285 0.10551666 8 -3 8 C-1.125 2.25 -1.125 2.25 0 0 Z " fill="#2790E4" transform="translate(236,250)"/>
<path d="M0 0 C1.984375 1.14453125 1.984375 1.14453125 4 3 C4.390625 5.69921875 4.390625 5.69921875 4.25 8.6875 C4.21390625 9.68136719 4.1778125 10.67523438 4.140625 11.69921875 C4.09421875 12.45847656 4.0478125 13.21773437 4 14 C1.66790424 9.54158164 0 5.08043161 0 0 Z " fill="#2D6EC2" transform="translate(99,187)"/>
<path d="M0 0 C0.66 0 1.32 0 2 0 C1.6875 1.9375 1.6875 1.9375 1 4 C0.01 4.33 -0.98 4.66 -2 5 C-3.70586575 6.62652316 -5.3777546 8.29006566 -7 10 C-7.33 9.01 -7.66 8.02 -8 7 C-7.50628906 6.66226563 -7.01257813 6.32453125 -6.50390625 5.9765625 C-5.86324219 5.53054687 -5.22257813 5.08453125 -4.5625 4.625 C-3.92441406 4.18414062 -3.28632813 3.74328125 -2.62890625 3.2890625 C-0.86259072 2.07839147 -0.86259072 2.07839147 0 0 Z " fill="#225CC3" transform="translate(152,41)"/>
<path d="M0 0 C0.66 0.99 1.32 1.98 2 3 C-2.625 6 -2.625 6 -6 6 C-6 4.68 -6 3.36 -6 2 C-4.02 1.34 -2.04 0.68 0 0 Z " fill="#2595EB" transform="translate(198,308)"/>
<path d="M0 0 C0.33 0.66 0.66 1.32 1 2 C1.99 2.33 2.98 2.66 4 3 C1.37801226 5.15377564 -0.64404172 6.40072174 -4 7 C-2.79618552 4.50638429 -1.54571278 2.31856917 0 0 Z " fill="#358FD2" transform="translate(217,281)"/>
<path d="M0 0 C0.99 0.33 1.98 0.66 3 1 C3 1.66 3 2.32 3 3 C3.66 3.66 4.32 4.32 5 5 C4.01 6.485 4.01 6.485 3 8 C2.01 7.67 1.02 7.34 0 7 C0 4.69 0 2.38 0 0 Z " fill="#28A9ED" transform="translate(228,400)"/>
<path d="M0 0 C2.625 -0.1875 2.625 -0.1875 5 0 C5 1.65 5 3.3 5 5 C2.69 4.34 0.38 3.68 -2 3 C-1.34 2.01 -0.68 1.02 0 0 Z " fill="#2277A4" transform="translate(223,370)"/>
<path d="M0 0 C0 2.31 0 4.62 0 7 C-1.32 6.67 -2.64 6.34 -4 6 C-4 4.68 -4 3.36 -4 2 C-1 0 -1 0 0 0 Z " fill="#D8EBF6" transform="translate(255,368)"/>
<path d="M0 0 C4.75 0.875 4.75 0.875 7 2 C6.67 4.31 6.34 6.62 6 9 C5.34 7.68 4.68 6.36 4 5 C3.34 5 2.68 5 2 5 C2.33 3.68 2.66 2.36 3 1 C2.01 0.67 1.02 0.34 0 0 Z " fill="#CED8DE" transform="translate(228,364)"/>
<path d="M0 0 C0.66 0.33 1.32 0.66 2 1 C1.67 2.32 1.34 3.64 1 5 C0.2575 5.144375 -0.485 5.28875 -1.25 5.4375 C-3.52027739 5.90187492 -5.75759479 6.41863569 -8 7 C-5.42215154 4.35247996 -3.08351902 2.05567935 0 0 Z " fill="#3A8BD0" transform="translate(189,311)"/>
<path d="M0 0 C1.18414294 3.55242882 0.69535532 4.69830562 -0.4375 8.1875 C-0.72496094 9.08855469 -1.01242187 9.98960937 -1.30859375 10.91796875 C-1.53675781 11.60503906 -1.76492188 12.29210937 -2 13 C-3.1171875 11.296875 -3.1171875 11.296875 -4 9 C-3.3203125 6.640625 -3.3203125 6.640625 -2.125 4.25 C-1.73570312 3.45078125 -1.34640625 2.6515625 -0.9453125 1.828125 C-0.63335937 1.22484375 -0.32140625 0.6215625 0 0 Z " fill="#3B8CC3" transform="translate(384,192)"/>
<path d="M0 0 C0.66 0 1.32 0 2 0 C2.66 1.98 3.32 3.96 4 6 C3.34 6 2.68 6 2 6 C1.67 6.66 1.34 7.32 1 8 C0.34 7.67 -0.32 7.34 -1 7 C-0.67 4.69 -0.34 2.38 0 0 Z " fill="#1A66D9" transform="translate(99,180)"/>
<path d="M0 0 C0 1.98 0 3.96 0 6 C-2.97 5.505 -2.97 5.505 -6 5 C-4.87312259 1.61936778 -3.78825335 0 0 0 Z " fill="#2C88D9" transform="translate(280,176)"/>
<path d="M0 0 C1.32 0.33 2.64 0.66 4 1 C4 1.99 4 2.98 4 4 C2.02 4.33 0.04 4.66 -2 5 C-1.34 3.35 -0.68 1.7 0 0 Z " fill="#2993E6" transform="translate(204,299)"/>
<path d="M0 0 C1.65 0 3.3 0 5 0 C6 2 6 2 5.0625 5.125 C4.711875 6.07375 4.36125 7.0225 4 8 C1.53721199 5.53721199 1.00228745 3.29323018 0 0 Z " fill="#2A78CC" transform="translate(111,226)"/>
<path d="M0 0 C1.98 0 3.96 0 6 0 C5.34 2.64 4.68 5.28 4 8 C3.67 8 3.34 8 3 8 C3 6.02 3 4.04 3 2 C2.01 1.67 1.02 1.34 0 1 C0 0.67 0 0.34 0 0 Z " fill="#2E546B" transform="translate(225,365)"/>
<path d="M0 0 C0.33 0.66 0.66 1.32 1 2 C2.65 1.34 4.3 0.68 6 0 C5.67 1.32 5.34 2.64 5 4 C2.69 4 0.38 4 -2 4 C-1.34 2.68 -0.68 1.36 0 0 Z " fill="#2E4B5D" transform="translate(262,358)"/>
<path d="M0 0 C0.66 0 1.32 0 2 0 C2 0.66 2 1.32 2 2 C2.66 2.33 3.32 2.66 4 3 C2.625 4.5 2.625 4.5 1 6 C0.34 6 -0.32 6 -1 6 C-1.042721 4.33388095 -1.04063832 2.66617115 -1 1 C-0.67 0.67 -0.34 0.34 0 0 Z " fill="#2997E6" transform="translate(180,338)"/>
<path d="M0 0 C1.32 0.66 2.64 1.32 4 2 C2.68 4.64 1.36 7.28 0 10 C-0.33 9.34 -0.66 8.68 -1 8 C-0.0625 5.375 -0.0625 5.375 1 3 C0.34 3 -0.32 3 -1 3 C-0.67 2.01 -0.34 1.02 0 0 Z " fill="#32A1DA" transform="translate(317,320)"/>
<path d="M0 0 C1.32 0.66 2.64 1.32 4 2 C1.36 3.65 -1.28 5.3 -4 7 C-4 6.01 -4 5.02 -4 4 C-3.01 4 -2.02 4 -1 4 C-0.67 2.68 -0.34 1.36 0 0 Z " fill="#3586CC" transform="translate(208,243)"/>
<path d="M0 0 C1 2 1 2 0.0625 5.125 C-0.288125 6.07375 -0.63875 7.0225 -1 8 C-2.32 7.67 -3.64 7.34 -5 7 C-3.35 4.69 -1.7 2.38 0 0 Z " fill="#3584CA" transform="translate(267,190)"/>
<path d="M0 0 C0.66 0 1.32 0 2 0 C2 0.66 2 1.32 2 2 C2.66 2 3.32 2 4 2 C3.67 3.65 3.34 5.3 3 7 C2.34 7 1.68 7 1 7 C-0.0625 4.625 -0.0625 4.625 -1 2 C-0.67 1.34 -0.34 0.68 0 0 Z " fill="#2A7DD6" transform="translate(243,195)"/>
<path d="M0 0 C0.33 0 0.66 0 1 0 C1 3.3 1 6.6 1 10 C0.34 10 -0.32 10 -1 10 C-2.23076923 4.58461538 -2.23076923 4.58461538 -1.0625 1.625 C-0.5365625 0.820625 -0.5365625 0.820625 0 0 Z " fill="#2D80D1" transform="translate(252,173)"/>
<path d="M0 0 C4.67943107 1.51641138 4.67943107 1.51641138 6.14453125 3.7265625 C7.07226562 6.36328125 7.07226562 6.36328125 8 9 C7.34 9 6.68 9 6 9 C4.4921875 7.03125 4.4921875 7.03125 2.875 4.5 C2.33617187 3.6646875 1.79734375 2.829375 1.2421875 1.96875 C0.83226562 1.3190625 0.42234375 0.669375 0 0 Z " fill="#3B99C9" transform="translate(209,385)"/>
<path d="M0 0 C1.1875 1.6875 1.1875 1.6875 2 4 C0.625 6.75 0.625 6.75 -1 9 C-1.66 8.67 -2.32 8.34 -3 8 C-2.01 5.36 -1.02 2.72 0 0 Z " fill="#396E85" transform="translate(257,367)"/>
<path d="M0 0 C0.99 0.33 1.98 0.66 3 1 C1.68 3.64 0.36 6.28 -1 9 C-1.33 9 -1.66 9 -2 9 C-1.125 1.125 -1.125 1.125 0 0 Z " fill="#365B74" transform="translate(236,364)"/>
<path d="M0 0 C1.485 0.99 1.485 0.99 3 2 C2.6875 3.9375 2.6875 3.9375 2 6 C1.01 6.33 0.02 6.66 -1 7 C-0.67 4.69 -0.34 2.38 0 0 Z " fill="#26A6EC" transform="translate(313,320)"/>
<path d="M0 0 C1.32 0.33 2.64 0.66 4 1 C4 1.99 4 2.98 4 4 C1.69 4.33 -0.62 4.66 -3 5 C-2.505 4.360625 -2.01 3.72125 -1.5 3.0625 C0.09802862 1.29025661 0.09802862 1.29025661 0 0 Z " fill="#327DAB" transform="translate(235,372)"/>
<path d="M0 0 C0 3 0 3 -2.5 5.6875 C-3.325 6.450625 -4.15 7.21375 -5 8 C-4.75 5.125 -4.75 5.125 -4 2 C-1.9375 0.625 -1.9375 0.625 0 0 Z " fill="#379EC8" transform="translate(287,369)"/>
<path d="M0 0 C0.33 0.66 0.66 1.32 1 2 C1.66 2 2.32 2 3 2 C2.67 3.65 2.34 5.3 2 7 C1.01 6.67 0.02 6.34 -1 6 C-0.67 4.02 -0.34 2.04 0 0 Z " fill="#D6E7F3" transform="translate(216,368)"/>
<path d="M0 0 C0.66 0 1.32 0 2 0 C1.67 2.31 1.34 4.62 1 7 C0.01 6.34 -0.98 5.68 -2 5 C-1.34 3.35 -0.68 1.7 0 0 Z " fill="#2D99DF" transform="translate(371,225)"/>
<path d="M0 0 C1.98 1.65 3.96 3.3 6 5 C2.98968256 5.93423645 2.13349732 6.04449911 -1 5 C-0.34 4.67 0.32 4.34 1 4 C0.67 2.68 0.34 1.36 0 0 Z " fill="#3489CE" transform="translate(300,185)"/>
<path d="M0 0 C1.4540625 0.0309375 1.4540625 0.0309375 2.9375 0.0625 C3.2675 0.7225 3.5975 1.3825 3.9375 2.0625 C1.9575 2.7225 -0.0225 3.3825 -2.0625 4.0625 C-2.0625 3.4025 -2.0625 2.7425 -2.0625 2.0625 C-2.7225 1.7325 -3.3825 1.4025 -4.0625 1.0625 C-3.0625 0.0625 -3.0625 0.0625 0 0 Z " fill="#267ADC" transform="translate(297.0625,97.9375)"/>
<path d="M0 0 C2.64 0.33 5.28 0.66 8 1 C8.33 2.32 8.66 3.64 9 5 C8.34 5 7.68 5 7 5 C6.67 4.34 6.34 3.68 6 3 C5.175 2.835 4.35 2.67 3.5 2.5 C2.675 2.335 1.85 2.17 1 2 C0.67 1.34 0.34 0.68 0 0 Z " fill="#2672D6" transform="translate(321,37)"/>
<path d="M0 0 C0.99 0 1.98 0 3 0 C1.70700306 2.88437779 0.34058637 4.87219421 -2 7 C-1.125 1.125 -1.125 1.125 0 0 Z " fill="#346F8F" transform="translate(220,369)"/>
<path d="M0 0 C1.32 0.33 2.64 0.66 4 1 C3.34 2.65 2.68 4.3 2 6 C1.67 5.34 1.34 4.68 1 4 C0.01 3.67 -0.98 3.34 -2 3 C-1.34 2.01 -0.68 1.02 0 0 Z " fill="#D4DFE8" transform="translate(237,353)"/>
<path d="M0 0 C1.65 0.33 3.3 0.66 5 1 C4.67 1.99 4.34 2.98 4 4 C1.03 3.505 1.03 3.505 -2 3 C-1.34 2.67 -0.68 2.34 0 2 C0 1.34 0 0.68 0 0 Z " fill="#2792EB" transform="translate(306,196)"/>
<path d="M0 0 C1 3 1 3 -0.4375 6.1875 C-1.2109375 7.5796875 -1.2109375 7.5796875 -2 9 C-2.66 9 -3.32 9 -4 9 C-2.94124926 5.59687262 -1.99097846 2.98646769 0 0 Z " fill="#367EBF" transform="translate(309,125)"/>
</svg>
